<?xml version="1.0" encoding="UTF-8"?>
<!--Generator: Apple Native CoreSVG 232.5-->
<!DOCTYPE svg
PUBLIC "-//W3C//DTD SVG 1.1//EN"
       "http://www.w3.org/Graphics/SVG/1.1/DTD/svg11.dtd">
<svg version="1.1" xmlns="http://www.w3.org/2000/svg" xmlns:xlink="http://www.w3.org/1999/xlink" width="57.2882" height="46.335">
 <g>
  <rect height="46.335" opacity="0" width="57.2882" x="0" y="0"/>
  <path d="M0 23.1305C0 23.9151 0.32531 24.6782 0.925306 25.2398L21.0469 45.3722C21.6722 45.9548 22.3397 46.2525 23.0756 46.2525C24.719 46.2525 25.8951 45.0829 25.8951 43.5178C25.8951 42.7102 25.5829 41.9911 25.0706 41.4638L17.1773 33.517L6.56104 23.7234L5.64652 25.4325L15.577 25.9818L54.0539 25.9818C55.7545 25.9818 56.9367 24.7973 56.9367 23.1305C56.9367 21.4402 55.7545 20.2791 54.0539 20.2791L15.577 20.2791L5.64652 20.805L6.56104 22.5375L17.1773 12.7397L25.0706 4.76949C25.5829 4.24637 25.8951 3.54231 25.8951 2.73888C25.8951 1.16952 24.719 0 23.0756 0C22.3397 0 21.6337 0.278435 20.9316 0.980618L0.925306 21.0019C0.32531 21.5784 0 22.3458 0 23.1305Z" fill="#ffffff" fill-opacity="0.85"/>
 </g>
</svg>
