<?xml version="1.0" encoding="UTF-8"?>
<!--Generator: Apple Native CoreSVG 232.5-->
<!DOCTYPE svg
PUBLIC "-//W3C//DTD SVG 1.1//EN"
       "http://www.w3.org/Graphics/SVG/1.1/DTD/svg11.dtd">
<svg version="1.1" xmlns="http://www.w3.org/2000/svg" xmlns:xlink="http://www.w3.org/1999/xlink" width="66.9252" height="50.5107">
 <g>
  <rect height="50.5107" opacity="0" width="66.9252" x="0" y="0"/>
  <path d="M52.2014 46.0601C60.2437 46.0601 66.556 40.2174 66.556 32.8781C66.556 27.3549 63.4429 22.4606 58.186 20.3655C58.2926 8.56201 49.8225 0 38.9632 0C31.8609 0 26.6925 3.73407 23.5134 8.5374C16.9452 6.58793 9.90896 11.5541 9.72357 18.9476C3.764 19.8897 0 25.159 0 31.6661C0 39.5554 6.85862 46.0433 15.9005 46.0433ZM52.1883 41.5554L15.8911 41.5386C9.3946 41.5386 4.54901 37.0416 4.54901 31.6661C4.54901 26.3599 7.80934 22.3683 13.2808 22.3683C13.6274 22.3683 13.7857 22.1726 13.7783 21.8223C13.6528 14.0392 19.3799 11.171 25.0458 13.0729C25.3644 13.1754 25.5638 13.1102 25.7352 12.8157C28.3487 8.21089 32.2534 4.5084 38.9373 4.5084C47.348 4.5084 53.3728 11.1718 53.8355 19.0989C53.9175 20.3856 53.8207 21.8256 53.7202 23.0557C53.6923 23.3854 53.8264 23.5979 54.1394 23.6557C58.9382 24.6729 62.0033 28.1642 62.0033 32.8781C62.0033 37.7335 57.7188 41.5554 52.1883 41.5554Z" fill="#ffffff" fill-opacity="0.85"/>
  <path d="M31.1813 35.5917C32.0065 35.5917 32.7235 35.2156 33.191 34.4461L43.9474 17.1006C44.2062 16.6835 44.4728 16.1376 44.4728 15.5785C44.4728 14.4592 43.5007 13.6118 42.3478 13.6118C41.6066 13.6118 40.9397 14.0142 40.5115 14.7627L31.0898 30.3877L26.3402 24.3506C25.8763 23.7431 25.2857 23.417 24.5404 23.417C23.4101 23.417 22.4528 24.296 22.4528 25.4937C22.4528 26.0338 22.6484 26.5424 23.045 27.0584L29.0858 34.4945C29.6969 35.2566 30.3581 35.5917 31.1813 35.5917Z" fill="#ffffff" fill-opacity="0.85"/>
 </g>
</svg>
