<svg width="14" height="16" viewBox="0 0 14 16" fill="none" xmlns="http://www.w3.org/2000/svg">
<g clip-path="url(#clip0_1930_6131)">
<path fill-rule="evenodd" clip-rule="evenodd" d="M8.09708 5.69952C8.58652 5.45547 9.2093 5.09621 9.83282 4.604C9.96428 4.87701 9.97868 5.11525 9.91095 5.30763C9.86295 5.4432 9.7725 5.56112 9.65356 5.65493C9.52476 5.75632 9.36391 5.83013 9.1861 5.87003C8.84871 5.94603 8.45479 5.90165 8.09708 5.69952ZM8.18194 8.20011L8.82983 8.57435C7.50695 9.31579 7.14732 10.6925 6.72012 12.0335C6.29298 10.6925 5.9333 9.31579 4.61047 8.57435L5.25836 8.20011C5.32104 8.17642 5.37461 8.1335 5.4114 8.07751C5.44819 8.02151 5.46631 7.9553 5.46316 7.88837C5.4038 6.63253 5.7429 6.07717 6.20028 5.72848C6.36434 5.60357 6.54343 5.54085 6.72012 5.54085C6.89682 5.54085 7.07591 5.60357 7.24002 5.72848C7.6974 6.07717 8.0365 6.63253 7.97714 7.88837C7.97399 7.9553 7.99211 8.02151 8.0289 8.07751C8.06569 8.1335 8.11926 8.17642 8.18194 8.20011ZM6.72012 0C7.46903 0.0201067 8.2198 0.165493 8.87138 0.44832C9.32258 0.644427 9.74359 0.903467 10.1248 1.21323C10.297 1.35307 10.4387 1.48816 10.5949 1.64368C11.0161 1.65824 11.6316 1.19035 11.9173 0.752533C11.4256 2.3648 9.1814 4.26875 7.62775 4.99728C7.62711 4.99701 7.62668 4.99664 7.6262 4.99632C7.34738 4.78341 7.03378 4.67696 6.72012 4.67696C6.40647 4.67696 6.09292 4.78341 5.8141 4.99632C5.81362 4.99659 5.81319 4.99707 5.81255 4.99728C4.25884 4.26875 2.01474 2.3648 1.52295 0.752533C1.80866 1.19035 2.42418 1.65824 2.84535 1.64368C3.00156 1.48821 3.14332 1.35307 3.31543 1.21323C3.69666 0.903467 4.11767 0.644427 4.56887 0.44832C5.2205 0.165493 5.97127 0.0201067 6.72012 0ZM5.34316 5.69952C4.85378 5.45547 4.23095 5.09621 3.60748 4.604C3.47602 4.87701 3.46162 5.11525 3.5293 5.30763C3.57735 5.4432 3.6678 5.56112 3.78668 5.65493C3.91554 5.75632 4.07639 5.83013 4.2542 5.87003C4.59159 5.94603 4.98546 5.90165 5.34316 5.69952Z" fill="white"/>
<path fill-rule="evenodd" clip-rule="evenodd" d="M10.5156 4.0009C10.8588 3.6545 11.1613 3.27109 11.4045 2.92896L11.528 3.16144C11.9257 3.95701 12.1323 4.74938 12.1323 5.64111L12.1314 7.05616L12.1389 7.7897C12.1677 9.59055 12.5573 11.4126 13.44 13.08L11.5932 11.5908L10.2865 13.7113L8.91371 12.419L6.72 15.9789L4.52629 12.419L3.15355 13.7114L1.84683 11.5909L0 13.08C0.882667 11.4126 1.27232 9.59061 1.30117 7.78976L1.30864 7.05621L1.30779 5.64117C1.30779 4.74938 1.51435 3.95701 1.91211 3.16149L2.03557 2.92901C2.27877 3.27114 2.58117 3.6545 2.92448 4.00095L2.81728 4.22362C2.60901 4.6561 2.54005 5.13967 2.70229 5.59957C2.80688 5.89578 2.99776 6.14981 3.24384 6.34373C3.48277 6.53205 3.76555 6.65898 4.0616 6.72565C4.25445 6.76906 4.45093 6.78693 4.64613 6.78085C4.60059 7.03903 4.58069 7.30682 4.57941 7.57967L2.83733 8.58586L4.18165 9.33941C4.2891 9.39965 4.39139 9.46867 4.48747 9.54575C5.59579 10.5408 6.26213 13.4847 6.72005 14.9226C7.17803 13.4847 7.84432 10.5408 8.95269 9.54575C9.04876 9.46865 9.15105 9.39964 9.25851 9.33941L10.6028 8.58586L8.86069 7.57967C8.85941 7.30682 8.83952 7.03903 8.79397 6.78085C8.98917 6.78693 9.18565 6.76906 9.37851 6.72565C9.67456 6.65898 9.95739 6.53205 10.1963 6.34373C10.4423 6.14981 10.6332 5.89578 10.7378 5.59957C10.9001 5.13967 10.831 4.65616 10.6228 4.22362L10.5156 4.00095L10.5156 4.0009Z" fill="white"/>
</g>
<defs>
<clipPath id="clip0_1930_6131">
<rect width="13.44" height="16" fill="white"/>
</clipPath>
</defs>
</svg>
