<svg width="30" height="30" viewBox="0 0 30 30" fill="none" xmlns="http://www.w3.org/2000/svg">
<path d="M6 9.25C6 8.38805 6.34241 7.5614 6.9519 6.9519C7.5614 6.34241 8.38805 6 9.25 6H20.75C21.612 6 22.4386 6.34241 23.0481 6.9519C23.6576 7.5614 24 8.38805 24 9.25V20.75C24 21.612 23.6576 22.4386 23.0481 23.0481C22.4386 23.6576 21.612 24 20.75 24H9.25C8.38805 24 7.5614 23.6576 6.9519 23.0481C6.34241 22.4386 6 21.612 6 20.75V9.25ZM9.25 7.5C8.78587 7.5 8.34075 7.68437 8.01256 8.01256C7.68437 8.34075 7.5 8.78587 7.5 9.25V14.25H14.25V7.5H9.25ZM14.25 15.75H7.5V20.75C7.5 21.716 8.284 22.5 9.25 22.5H14.25V15.75ZM15.75 15.75V22.5H20.75C21.2141 22.5 21.6592 22.3156 21.9874 21.9874C22.3156 21.6592 22.5 21.2141 22.5 20.75V15.75H15.75ZM22.5 14.25V9.25C22.5 8.78587 22.3156 8.34075 21.9874 8.01256C21.6592 7.68437 21.2141 7.5 20.75 7.5H15.75V14.25H22.5Z" fill="white"/>
</svg>
