<svg width="24" height="24" viewBox="0 0 24 24" fill="none" xmlns="http://www.w3.org/2000/svg">
<path fill-rule="evenodd" clip-rule="evenodd" d="M11.9998 11.1C12.4969 11.1 12.8998 11.5029 12.8998 12V16.8C12.8998 17.2971 12.4969 17.7 11.9998 17.7C11.5027 17.7 11.0998 17.2971 11.0998 16.8V12C11.0998 11.5029 11.5027 11.1 11.9998 11.1Z" fill="white"/>
<path d="M13.1998 8.4C13.1998 9.06274 12.6625 9.6 11.9998 9.6C11.3371 9.6 10.7998 9.06274 10.7998 8.4C10.7998 7.73726 11.3371 7.2 11.9998 7.2C12.6625 7.2 13.1998 7.73726 13.1998 8.4Z" fill="white"/>
<path fill-rule="evenodd" clip-rule="evenodd" d="M4.78732 4.78751C6.63217 2.94266 9.1834 1.8 11.9998 1.8C14.8162 1.8 17.3674 2.94266 19.2123 4.78751C21.0571 6.63236 22.1998 9.1836 22.1998 12C22.1998 14.8164 21.0571 17.3676 19.2123 19.2125C17.3674 21.0573 14.8162 22.2 11.9998 22.2C9.1834 22.2 6.63217 21.0573 4.78732 19.2125C2.94246 17.3676 1.7998 14.8164 1.7998 12C1.7998 9.1836 2.94246 6.63236 4.78732 4.78751ZM11.9998 3.6C9.67996 3.6 7.58119 4.53922 6.06011 6.0603C4.53902 7.58139 3.5998 9.68016 3.5998 12C3.5998 14.3198 4.53902 16.4186 6.06011 17.9397C7.58119 19.4608 9.67996 20.4 11.9998 20.4C14.3196 20.4 16.4184 19.4608 17.9395 17.9397C19.4606 16.4186 20.3998 14.3198 20.3998 12C20.3998 9.68016 19.4606 7.58139 17.9395 6.0603C16.4184 4.53922 14.3196 3.6 11.9998 3.6Z" fill="white"/>
</svg>
