<svg width="16" height="16" viewBox="0 0 16 16" fill="none" xmlns="http://www.w3.org/2000/svg">
<path d="M7.32374 11.7963C7.39366 11.866 7.44913 11.9488 7.48699 12.04C7.52484 12.1311 7.54433 12.2289 7.54433 12.3276C7.54433 12.4263 7.52484 12.524 7.48699 12.6152C7.44913 12.7064 7.39366 12.7892 7.32374 12.8588L7.00374 13.1788C6.66405 13.5198 6.26014 13.79 5.81536 13.9739C5.37058 14.1578 4.89377 14.2516 4.41249 14.2501C3.68769 14.2503 2.97912 14.0356 2.3764 13.633C1.77368 13.2304 1.30391 12.6582 1.02651 11.9886C0.749115 11.3189 0.676559 10.5821 0.818022 9.87125C0.959486 9.1604 1.30861 8.50747 1.82124 7.99509L3.99311 5.82321C4.45507 5.36132 5.03209 5.0313 5.66443 4.86731C6.29677 4.70332 6.96146 4.71132 7.58967 4.89049C8.21788 5.06966 8.78678 5.41348 9.23748 5.88637C9.68818 6.35925 10.0043 6.944 10.1531 7.58009C10.1778 7.6768 10.1829 7.77746 10.1681 7.87617C10.1533 7.97488 10.119 8.06965 10.0672 8.15493C10.0153 8.24021 9.94698 8.31428 9.86614 8.37281C9.78529 8.43133 9.69358 8.47313 9.59637 8.49576C9.49917 8.51839 9.39842 8.52138 9.30004 8.50458C9.20166 8.48777 9.10763 8.4515 9.02345 8.39788C8.93926 8.34427 8.86663 8.27439 8.8098 8.19235C8.75297 8.1103 8.71309 8.01774 8.69249 7.92009C8.60418 7.5446 8.4172 7.19952 8.15086 6.92051C7.88452 6.6415 7.54849 6.43869 7.17752 6.33304C6.80655 6.2274 6.41409 6.22275 6.04071 6.31958C5.66734 6.41641 5.32661 6.61121 5.05374 6.88384L2.88186 9.05571C2.57912 9.35821 2.37288 9.74369 2.28923 10.1634C2.20557 10.5831 2.24827 11.0182 2.41191 11.4137C2.57555 11.8091 2.85278 12.1472 3.20855 12.385C3.56432 12.6229 3.98264 12.75 4.41061 12.7501C4.69497 12.7509 4.97668 12.6953 5.23941 12.5866C5.50215 12.4778 5.74069 12.3179 5.94124 12.1163L6.26061 11.7963C6.3303 11.7263 6.41313 11.6708 6.50436 11.6329C6.59558 11.5949 6.69339 11.5754 6.79217 11.5754C6.89096 11.5754 6.98877 11.5949 7.07999 11.6329C7.17121 11.6708 7.25405 11.7263 7.32374 11.7963ZM14.1769 2.82321C13.4895 2.13603 12.5573 1.75 11.5853 1.75C10.6133 1.75 9.68114 2.13603 8.99374 2.82321L8.67436 3.14259C8.53346 3.28348 8.45431 3.47458 8.45431 3.67384C8.45431 3.87309 8.53346 4.06419 8.67436 4.20509C8.81526 4.34598 9.00635 4.42514 9.20561 4.42514C9.40487 4.42514 9.59596 4.34598 9.73686 4.20509L10.0569 3.88509C10.463 3.47897 11.0138 3.25082 11.5881 3.25082C12.1624 3.25082 12.7132 3.47897 13.1194 3.88509C13.5255 4.2912 13.7536 4.84201 13.7536 5.41634C13.7536 5.99067 13.5255 6.54147 13.1194 6.94759L10.9437 9.11634C10.7432 9.31794 10.5046 9.47777 10.2419 9.58655C9.97918 9.69534 9.69748 9.75092 9.41311 9.75008C8.9253 9.74974 8.4519 9.58461 8.0697 9.28149C7.6875 8.97836 7.41891 8.555 7.30749 8.08009C7.2624 7.88631 7.14218 7.71838 6.97328 7.61325C6.80438 7.50811 6.60063 7.47437 6.40686 7.51946C6.21309 7.56455 6.04516 7.68476 5.94002 7.85366C5.83489 8.02256 5.80115 8.22631 5.84624 8.42009C6.03443 9.22438 6.4888 9.94152 7.13567 10.4552C7.78254 10.9689 8.58397 11.249 9.40999 11.2501H9.41311C9.89462 11.2514 10.3716 11.1572 10.8165 10.973C11.2614 10.7888 11.6653 10.5183 12.005 10.177L14.1769 8.00509C14.5172 7.66486 14.7871 7.26094 14.9713 6.81638C15.1554 6.37183 15.2502 5.89534 15.2502 5.41415C15.2502 4.93295 15.1554 4.45647 14.9713 4.01191C14.7871 3.56735 14.5172 3.16343 14.1769 2.82321Z" fill="white"/>
</svg>
