<?xml version="1.0" encoding="UTF-8"?>
<!--Generator: Apple Native CoreSVG 232.5-->
<!DOCTYPE svg
PUBLIC "-//W3C//DTD SVG 1.1//EN"
       "http://www.w3.org/Graphics/SVG/1.1/DTD/svg11.dtd">
<svg version="1.1" xmlns="http://www.w3.org/2000/svg" xmlns:xlink="http://www.w3.org/1999/xlink" width="77.7577" height="66.2874">
 <g>
  <rect height="66.2874" opacity="0" width="77.7577" x="0" y="0"/>
  <path d="M60.0234 7.88416L61.4905 16.2237L56.2613 16.2237L55.0238 9.20133C54.4758 6.10757 52.531 4.8471 49.5778 5.37163L9.17437 12.4699C6.17858 13.0329 4.83092 14.8563 5.37889 17.9777L10.2267 45.492C10.7789 48.5857 12.6811 49.8696 15.6727 49.3451L16.6903 49.1658L16.6903 54.3999L16.2825 54.4718C10.0631 55.5644 6.30049 52.9432 5.22705 46.8091L0.232992 18.4404C-0.840444 12.3064 1.80424 8.55449 7.98095 7.46183L48.968 0.240737C55.1681-0.851918 58.9542 1.78854 60.0234 7.88416Z" fill="#ffffff" fill-opacity="0.85"/>
  <path d="M26.2336 63.9494L67.8492 63.9494C74.1239 63.9494 77.4117 60.6893 77.4117 54.4957L77.4117 25.6774C77.4117 19.4838 74.1239 16.2237 67.8492 16.2237L26.2336 16.2237C19.9355 16.2237 16.6903 19.4646 16.6903 25.6774L16.6903 54.4957C16.6903 60.7277 19.9355 63.9494 26.2336 63.9494ZM26.5275 58.8012C23.489 58.8012 21.8428 57.2145 21.8428 54.0738L21.8428 26.1185C21.8428 22.9587 23.489 21.3719 26.5275 21.3719L67.5553 21.3719C70.5553 21.3719 72.24 22.9587 72.24 26.1185L72.24 54.0738C72.24 57.2145 70.5553 58.8012 67.5553 58.8012ZM26.7909 61.9605L67.0739 61.9605C72.1598 61.9605 74.7703 59.3909 74.7703 54.2501L74.7703 52.3685L60.8231 39.2946C59.6423 38.2034 58.2314 37.6427 56.7459 37.6427C55.2581 37.6427 53.9583 38.1607 52.7114 39.2712L40.6833 49.8415L35.9587 45.5388C34.8248 44.5179 33.6379 44.0191 32.34 44.0191C31.1315 44.0191 30.0258 44.5179 28.8961 45.5112L19.0711 54.1849C19.0711 59.3951 21.6754 61.9605 26.7909 61.9605Z" fill="#ffffff" fill-opacity="0.85"/>
  <path d="M38.7497 39.8763C42.2592 39.8763 45.1209 36.9719 45.1209 33.439C45.1209 29.9721 42.2592 27.0485 38.7497 27.0485C35.2167 27.0485 32.37 29.9721 32.37 33.439C32.37 36.9719 35.2167 39.8763 38.7497 39.8763Z" fill="#ffffff" fill-opacity="0.85"/>
 </g>
</svg>
