<?xml version="1.0" encoding="UTF-8"?>
<!--Generator: Apple Native CoreSVG 232.5-->
<!DOCTYPE svg
PUBLIC "-//W3C//DTD SVG 1.1//EN"
       "http://www.w3.org/Graphics/SVG/1.1/DTD/svg11.dtd">
<svg version="1.1" xmlns="http://www.w3.org/2000/svg" xmlns:xlink="http://www.w3.org/1999/xlink" width="64.9946" height="67.6495">
 <g>
  <rect height="67.6495" opacity="0" width="64.9946" x="0" y="0"/>
  <path d="M49.0814 7.55548L15.5644 7.55548C15.6803 5.53844 16.9708 4.36447 19.0891 4.36447L45.5364 4.36447C47.6546 4.36447 48.9638 5.53844 49.0814 7.55548Z" fill="#ffffff" fill-opacity="0.85"/>
  <path d="M54.3522 15.0683C53.5562 14.9423 52.7132 14.8829 51.8323 14.8829L12.7932 14.8829C11.9121 14.8829 11.0691 14.9419 10.2735 15.0671C10.5573 12.7073 12.1785 11.3658 14.7627 11.3658L49.8627 11.3658C52.4507 11.3658 54.0692 12.7077 54.3522 15.0683Z" fill="#ffffff" fill-opacity="0.85"/>
  <path d="M12.7932 63.2235L51.8323 63.2235C57.3226 63.2235 60.1826 60.3672 60.1826 54.931L60.1826 27.6014C60.1826 22.1652 57.3226 19.3257 51.8323 19.3257L12.7932 19.3257C7.28601 19.3257 4.4465 22.1484 4.4465 27.6014L4.4465 54.931C4.4465 60.384 7.28601 63.2235 12.7932 63.2235ZM13.0503 58.7151C10.3917 58.7151 8.95121 57.3304 8.95121 54.5618L8.95121 27.9706C8.95121 25.2188 10.3917 23.8341 13.0503 23.8341L51.5751 23.8341C54.2001 23.8341 55.6742 25.2188 55.6742 27.9706L55.6742 54.5618C55.6742 57.3304 54.2001 58.7151 51.5751 58.7151Z" fill="#ffffff" fill-opacity="0.85"/>
 </g>
</svg>
