<?xml version="1.0" encoding="UTF-8"?>
<!--Generator: Apple Native CoreSVG 232.5-->
<!DOCTYPE svg
PUBLIC "-//W3C//DTD SVG 1.1//EN"
       "http://www.w3.org/Graphics/SVG/1.1/DTD/svg11.dtd">
<svg width="10" height="10" viewBox="0 0 10 10" fill="none" xmlns="http://www.w3.org/2000/svg">
<path d="M8.77068 0.25C9.04834 0.25 9.27343 0.473858 9.27343 0.75V2.5C9.27343 2.77614 9.04834 3 8.77068 3H7.01103C6.73336 3 6.50827 2.77614 6.50827 2.5C6.50827 2.22386 6.73336 2 7.01103 2H7.66051C6.95116 1.37725 6.01983 1 5 1C2.93007 1 1.22476 2.55549 1.00251 4.55494C0.972006 4.82941 0.723545 5.02731 0.447561 4.99697C0.171577 4.96663 -0.0274205 4.71953 0.00308799 4.44506C0.281029 1.94456 2.41183 0 5 0C6.24786 0 7.38938 0.452341 8.26792 1.20029V0.75C8.26792 0.473858 8.49301 0.25 8.77068 0.25Z" fill="white" fill-opacity="0.5"/>
<path d="M9.55244 5.00303C9.82842 5.03337 10.0274 5.28047 9.99691 5.55494C9.71897 8.05544 7.58817 10 5 10C3.75214 10 2.61062 9.54766 1.73208 8.79971V9.25C1.73208 9.52614 1.50698 9.75 1.22932 9.75C0.951655 9.75 0.726563 9.52614 0.726563 9.25V7.5C0.726563 7.22386 0.951655 7 1.22932 7H2.98897C3.26664 7 3.49173 7.22386 3.49173 7.5C3.49173 7.77614 3.26664 8 2.98897 8H2.33949C3.04884 8.62275 3.98017 9 5 9C7.06993 9 8.77524 7.44451 8.99749 5.44506C9.02799 5.17059 9.27646 4.97269 9.55244 5.00303Z" fill="white" fill-opacity="0.5"/>
</svg>
