<svg width="16" height="16" viewBox="0 0 16 16" fill="none" xmlns="http://www.w3.org/2000/svg">
<path d="M13.8068 2.43626C13.8068 2.43626 15.1018 1.93126 14.9934 3.15759C14.9578 3.66259 14.6341 5.43026 14.3821 7.34192L13.5188 13.0053C13.5188 13.0053 13.4468 13.8349 12.7991 13.9793C12.1518 14.1233 11.1804 13.4743 11.0004 13.3299C10.8564 13.2216 8.30243 11.5983 7.4031 10.8049C7.1511 10.5883 6.8631 10.1556 7.4391 9.65059L11.2164 6.04326C11.6481 5.60992 12.0798 4.59992 10.2811 5.82659L5.24443 9.25326C5.24443 9.25326 4.66876 9.61426 3.58976 9.28959L1.2511 8.56792C1.2511 8.56792 0.387765 8.02692 1.86276 7.48592C5.46043 5.79059 9.88543 4.05926 13.8064 2.43592" fill="white"/>
</svg>
