<svg width="702" height="256" viewBox="0 0 702 256" fill="none" xmlns="http://www.w3.org/2000/svg">
<path d="M44.2 183.04C48.8933 168.853 53.3733 154.933 57.64 141.28C59.4533 135.52 61.32 129.493 63.24 123.2C65.16 116.907 67.08 110.667 69 104.48C70.92 98.2933 72.68 92.32 74.28 86.56C75.9867 80.8 77.48 75.4667 78.76 70.56C84.6267 70.56 90.1733 70.24 95.4 69.6C100.627 68.96 106.28 68.3733 112.36 67.84C112.04 70.1867 111.667 72.8533 111.24 75.84C110.92 78.72 110.493 81.76 109.96 84.96C109.533 88.16 109.053 91.4667 108.52 94.88C107.987 98.2933 107.347 102.667 106.6 108C105.853 113.333 104.84 120 103.56 128H105.64C108.733 119.893 111.293 113.173 113.32 107.84C115.347 102.4 117 97.9733 118.28 94.56C119.56 91.1467 120.84 87.84 122.12 84.64C123.507 81.3333 124.787 78.24 125.96 75.36C127.24 72.3733 128.413 69.76 129.48 67.52C132.147 67.3067 134.653 67.04 137 66.72C139.347 66.4 141.693 66.08 144.04 65.76C146.387 65.3333 148.733 64.96 151.08 64.64C153.533 64.2133 156.2 63.7333 159.08 63.2C158.013 69.3867 157 75.7333 156.04 82.24C155.08 88.7467 154.227 95.2533 153.48 101.76C152.733 108.16 151.987 114.507 151.24 120.8C150.6 127.093 150.013 133.067 149.48 138.72C148.2 151.947 147.08 164.853 146.12 177.44L118.28 182.4C118.28 181.867 118.333 180.427 118.44 178.08C118.653 175.733 118.867 172.853 119.08 169.44C119.4 166.027 119.773 162.24 120.2 158.08C120.733 153.92 121.213 149.76 121.64 145.6C122.173 141.44 122.707 137.44 123.24 133.6C123.773 129.653 124.307 126.293 124.84 123.52H123.4C121.907 128 120.253 132.747 118.44 137.76C116.627 142.667 114.76 147.68 112.84 152.8C111.027 157.92 109.213 162.933 107.4 167.84C105.587 172.747 103.987 177.44 102.6 181.92C98.8667 182.027 95.6667 182.187 93 182.4C90.3333 182.507 87.24 182.667 83.72 182.88L88.84 123.52H86.44C86.2267 124.907 85.6933 127.253 84.84 130.56C83.9867 133.76 82.9733 137.493 81.8 141.76C80.7333 145.92 79.56 150.293 78.28 154.88C77 159.36 75.7733 163.573 74.6 167.52C73.5333 171.36 72.6267 174.56 71.88 177.12C71.1333 179.573 70.7067 180.96 70.6 181.28L44.2 183.04ZM149.343 184.16L170.303 70.4L220.863 66.08C220.116 68.4267 219.476 70.8267 218.943 73.28C218.409 75.3067 217.876 77.44 217.343 79.68C216.916 81.8133 216.543 83.7333 216.223 85.44C215.156 85.5467 213.609 85.6533 211.583 85.76C209.663 85.76 207.583 85.8133 205.343 85.92C203.103 85.92 200.809 85.92 198.463 85.92C196.223 85.92 194.249 85.92 192.543 85.92L186.943 114.56C190.249 114.347 193.343 114.187 196.223 114.08C198.569 113.973 200.969 113.92 203.423 113.92C205.876 113.92 207.689 113.867 208.863 113.76C208.436 116.747 208.009 119.68 207.583 122.56C207.263 125.44 206.836 128.373 206.303 131.36C205.236 131.467 203.476 131.573 201.023 131.68C198.676 131.68 196.276 131.733 193.823 131.84C191.049 131.947 188.009 132.053 184.703 132.16L179.263 161.6L202.623 157.92L201.023 176.16L149.343 184.16ZM197.794 183.04C202.487 168.853 206.967 154.933 211.234 141.28C213.047 135.52 214.914 129.493 216.834 123.2C218.754 116.907 220.674 110.667 222.594 104.48C224.514 98.2933 226.274 92.32 227.874 86.56C229.58 80.8 231.074 75.4667 232.354 70.56C238.22 70.56 243.767 70.24 248.994 69.6C254.22 68.96 259.874 68.3733 265.954 67.84C265.634 70.1867 265.26 72.8533 264.834 75.84C264.514 78.72 264.087 81.76 263.554 84.96C263.127 88.16 262.647 91.4667 262.114 94.88C261.58 98.2933 260.94 102.667 260.194 108C259.447 113.333 258.434 120 257.154 128H259.234C262.327 119.893 264.887 113.173 266.914 107.84C268.94 102.4 270.594 97.9733 271.874 94.56C273.154 91.1467 274.434 87.84 275.714 84.64C277.1 81.3333 278.38 78.24 279.554 75.36C280.834 72.3733 282.007 69.76 283.074 67.52C285.74 67.3067 288.247 67.04 290.594 66.72C292.94 66.4 295.287 66.08 297.634 65.76C299.98 65.3333 302.327 64.96 304.674 64.64C307.127 64.2133 309.794 63.7333 312.674 63.2C311.607 69.3867 310.594 75.7333 309.634 82.24C308.674 88.7467 307.82 95.2533 307.074 101.76C306.327 108.16 305.58 114.507 304.834 120.8C304.194 127.093 303.607 133.067 303.074 138.72C301.794 151.947 300.674 164.853 299.714 177.44L271.874 182.4C271.874 181.867 271.927 180.427 272.034 178.08C272.247 175.733 272.46 172.853 272.674 169.44C272.994 166.027 273.367 162.24 273.794 158.08C274.327 153.92 274.807 149.76 275.234 145.6C275.767 141.44 276.3 137.44 276.834 133.6C277.367 129.653 277.9 126.293 278.434 123.52H276.994C275.5 128 273.847 132.747 272.034 137.76C270.22 142.667 268.354 147.68 266.434 152.8C264.62 157.92 262.807 162.933 260.994 167.84C259.18 172.747 257.58 177.44 256.194 181.92C252.46 182.027 249.26 182.187 246.594 182.4C243.927 182.507 240.834 182.667 237.314 182.88L242.434 123.52H240.034C239.82 124.907 239.287 127.253 238.434 130.56C237.58 133.76 236.567 137.493 235.394 141.76C234.327 145.92 233.154 150.293 231.874 154.88C230.594 159.36 229.367 163.573 228.194 167.52C227.127 171.36 226.22 174.56 225.474 177.12C224.727 179.573 224.3 180.96 224.194 181.28L197.794 183.04ZM302.936 184.16L323.896 70.4L374.456 66.08C373.71 68.4267 373.07 70.8267 372.536 73.28C372.003 75.3067 371.47 77.44 370.936 79.68C370.51 81.8133 370.136 83.7333 369.816 85.44C368.75 85.5467 367.203 85.6533 365.176 85.76C363.256 85.76 361.176 85.8133 358.936 85.92C356.696 85.92 354.403 85.92 352.056 85.92C349.816 85.92 347.843 85.92 346.136 85.92L340.536 114.56C343.843 114.347 346.936 114.187 349.816 114.08C352.163 113.973 354.563 113.92 357.016 113.92C359.47 113.92 361.283 113.867 362.456 113.76C362.03 116.747 361.603 119.68 361.176 122.56C360.856 125.44 360.43 128.373 359.896 131.36C358.83 131.467 357.07 131.573 354.616 131.68C352.27 131.68 349.87 131.733 347.416 131.84C344.643 131.947 341.603 132.053 338.296 132.16L332.856 161.6L356.216 157.92L354.616 176.16L302.936 184.16ZM468.878 102.24C468.878 107.787 468.078 113.707 466.478 120C464.878 126.187 462.638 132.373 459.758 138.56C456.878 144.64 453.304 150.507 449.038 156.16C444.878 161.707 440.131 166.613 434.798 170.88C429.464 175.04 423.598 178.4 417.198 180.96C410.904 183.52 404.184 184.8 397.038 184.8C395.544 184.8 394.051 184.693 392.558 184.48C391.064 184.373 389.571 184.213 388.078 184C390.958 169.28 393.784 154.933 396.558 140.96C397.624 135.093 398.744 129.013 399.918 122.72C401.091 116.32 402.211 110.027 403.278 103.84C404.344 97.6533 405.358 91.7333 406.318 86.08C407.384 80.4267 408.238 75.3067 408.878 70.72C413.464 69.8667 418.104 69.0667 422.798 68.32C427.491 67.5733 432.291 67.2 437.198 67.2C442.958 67.2 447.811 68.1067 451.758 69.92C455.811 71.7333 459.064 74.24 461.518 77.44C464.078 80.64 465.944 84.3733 467.118 88.64C468.291 92.9067 468.878 97.44 468.878 102.24ZM431.118 89.76C429.944 96.0533 428.718 102.08 427.438 107.84C426.158 113.6 424.878 119.413 423.598 125.28C422.318 131.147 421.038 137.28 419.758 143.68C418.478 150.08 417.251 157.067 416.078 164.64C418.638 162.933 421.091 160.64 423.438 157.76C425.891 154.773 428.184 151.36 430.318 147.52C432.451 143.68 434.371 139.627 436.078 135.36C437.891 131.093 439.438 126.933 440.718 122.88C441.998 118.827 442.958 115.04 443.598 111.52C444.344 108 444.718 104.96 444.718 102.4C444.718 98.4533 443.598 95.36 441.358 93.12C439.224 90.88 435.811 89.76 431.118 89.76ZM459.343 184.16L480.303 70.4L530.863 66.08C530.116 68.4267 529.476 70.8267 528.943 73.28C528.409 75.3067 527.876 77.44 527.343 79.68C526.916 81.8133 526.543 83.7333 526.223 85.44C525.156 85.5467 523.609 85.6533 521.583 85.76C519.663 85.76 517.583 85.8133 515.343 85.92C513.103 85.92 510.809 85.92 508.463 85.92C506.223 85.92 504.249 85.92 502.543 85.92L496.943 114.56C500.249 114.347 503.343 114.187 506.223 114.08C508.569 113.973 510.969 113.92 513.423 113.92C515.876 113.92 517.689 113.867 518.863 113.76C518.436 116.747 518.009 119.68 517.583 122.56C517.263 125.44 516.836 128.373 516.303 131.36C515.236 131.467 513.476 131.573 511.023 131.68C508.676 131.68 506.276 131.733 503.823 131.84C501.049 131.947 498.009 132.053 494.703 132.16L489.263 161.6L512.623 157.92L511.023 176.16L459.343 184.16ZM580.914 149.6C578.354 155.467 575.474 160.587 572.274 164.96C569.18 169.227 565.874 172.853 562.354 175.84C558.94 178.72 555.474 180.853 551.954 182.24C548.434 183.627 545.02 184.32 541.714 184.32C538.407 184.32 535.367 183.573 532.594 182.08C529.927 180.587 527.58 178.347 525.554 175.36C523.527 172.373 521.874 168.693 520.594 164.32C519.42 159.947 518.834 154.827 518.834 148.96C518.834 138.933 520.22 129.067 522.994 119.36C525.767 109.547 529.66 100.747 534.674 92.96C539.687 85.1733 545.607 78.9333 552.434 74.24C559.367 69.44 566.994 67.04 575.314 67.04C577.874 67.04 580.327 67.5733 582.674 68.64C585.02 69.7067 587.047 71.2 588.754 73.12C590.46 75.04 591.794 77.3867 592.754 80.16C593.82 82.9333 594.354 86.0267 594.354 89.44C594.354 90.08 594.354 90.7733 594.354 91.52C594.354 92.16 594.3 92.8533 594.194 93.6L573.234 99.2C571.954 96.5333 570.46 95.2 568.754 95.2C567.047 95.2 565.234 96.2133 563.314 98.24C561.5 100.16 559.687 102.72 557.874 105.92C556.06 109.013 554.3 112.533 552.594 116.48C550.887 120.32 549.394 124.213 548.114 128.16C546.834 132.107 545.767 135.893 544.914 139.52C544.167 143.04 543.794 145.92 543.794 148.16C543.794 151.573 544.22 153.973 545.074 155.36C546.034 156.747 547.26 157.44 548.754 157.44C549.927 157.44 551.26 157.013 552.754 156.16C554.247 155.2 555.634 154.027 556.914 152.64C558.194 151.147 559.367 149.493 560.434 147.68C561.5 145.867 562.247 144.053 562.674 142.24L580.914 149.6ZM579.964 184.16C583.164 169.227 586.15 154.72 588.924 140.64C589.99 134.56 591.11 128.267 592.284 121.76C593.457 115.253 594.524 108.8 595.484 102.4C596.55 96 597.457 89.8133 598.204 83.84C599.057 77.76 599.697 72.2667 600.124 67.36C602.577 67.5733 605.35 67.7867 608.444 68C611.537 68.1067 614.417 68.2667 617.084 68.48C620.284 68.6933 623.484 68.8 626.684 68.8C626.577 69.2267 626.417 70.0267 626.204 71.2C625.99 72.3733 625.724 73.8133 625.404 75.52C625.084 77.12 624.71 78.9333 624.284 80.96C623.964 82.9867 623.59 85.0133 623.164 87.04C622.31 91.7333 621.35 97.0133 620.284 102.88L621.244 102.72C622.31 101.013 623.804 98.6667 625.724 95.68C627.75 92.5867 629.83 89.3333 631.964 85.92C634.097 82.5067 636.177 79.2533 638.204 76.16C640.23 72.96 641.937 70.24 643.324 68C648.657 67.5733 653.99 67.0933 659.324 66.56C664.657 66.0267 669.99 65.3333 675.324 64.48C670.31 71.2 665.457 77.8133 660.764 84.32C658.737 87.0933 656.657 89.9733 654.524 92.96C652.497 95.9467 650.47 98.88 648.444 101.76C646.417 104.64 644.497 107.413 642.684 110.08C640.977 112.747 639.43 115.2 638.044 117.44C640.39 128.213 643.164 138.613 646.364 148.64C649.564 158.667 652.817 168.907 656.124 179.36C653.67 179.253 651.164 179.2 648.604 179.2C646.044 179.093 643.537 179.04 641.084 179.04C637.99 179.04 635.004 179.093 632.124 179.2C629.244 179.2 626.257 179.253 623.164 179.36C622.204 172.427 621.137 165.173 619.964 157.6C618.897 149.92 617.884 142.613 616.924 135.68L614.044 139.04C613.297 142.24 612.444 146.187 611.484 150.88C610.63 155.573 609.777 160.107 608.924 164.48C607.964 169.6 606.95 174.88 605.884 180.32L579.964 184.16Z" fill="white"/>
</svg>
