<?xml version="1.0" encoding="UTF-8"?>
<!--Generator: Apple Native CoreSVG 232.5-->
<!DOCTYPE svg
PUBLIC "-//W3C//DTD SVG 1.1//EN"
       "http://www.w3.org/Graphics/SVG/1.1/DTD/svg11.dtd">
<svg version="1.1" xmlns="http://www.w3.org/2000/svg" xmlns:xlink="http://www.w3.org/1999/xlink" width="58.6326" height="48.6133">
 <g>
  <rect height="48.6133" opacity="0" width="58.6326" x="0" y="0"/>
  <path d="M32.6874 48.5797C33.9855 48.5797 35.038 48.0469 36.2709 46.8866L57.1864 27.2848C58.2733 26.2594 58.6326 25.2016 58.6326 24.3001C58.6326 23.3465 58.277 22.3277 57.1938 21.2855L36.2709 1.80509C34.9244 0.559042 34.0081 0 32.7247 0C30.8216 0 29.4775 1.50281 29.4775 3.35547L29.4775 13.2247L28.7233 13.2247C10.7527 13.2247 1.90066 24.5204 1.90066 44.1406C1.90066 46.9867 3.18403 48.4911 4.83982 48.4911C6.09243 48.4911 7.26588 48.0896 8.17273 46.328C12.2809 38.3812 18.505 35.476 28.7233 35.476L29.4775 35.476L29.4775 45.3567C29.4775 47.2057 30.8216 48.5797 32.6874 48.5797Z" fill="#ffffff" fill-opacity="0.85"/>
 </g>
</svg>
