<?xml version="1.0" encoding="UTF-8"?>
<!--Generator: Apple Native CoreSVG 232.5-->
<!DOCTYPE svg
PUBLIC "-//W3C//DTD SVG 1.1//EN"
       "http://www.w3.org/Graphics/SVG/1.1/DTD/svg11.dtd">
<svg version="1.1" xmlns="http://www.w3.org/2000/svg" xmlns:xlink="http://www.w3.org/1999/xlink" width="59.3709" height="48.6133">
 <g>
  <rect height="48.6133" opacity="0" width="59.3709" x="0" y="0"/>
  <path d="M25.9452 48.5797C27.8147 48.5797 29.1383 47.2057 29.1383 45.3567L29.1383 35.476L29.8963 35.476C40.1276 35.476 46.3555 38.3812 50.4431 46.328C51.3852 48.0822 52.5234 48.4911 53.7928 48.4911C55.4318 48.4911 56.7152 46.9867 56.7152 44.1406C56.7152 24.5204 47.88 13.2247 29.8963 13.2247L29.1383 13.2247L29.1383 3.35547C29.1383 1.50281 27.8147 0 25.9079 0C24.6114 0 23.6914 0.559042 22.3449 1.80509L1.44252 21.2855C0.338787 22.3277 0 23.3465 0 24.3001C0 25.2016 0.359295 26.2594 1.44621 27.2848L22.3449 46.8866C23.5778 48.0469 24.6303 48.5797 25.9452 48.5797ZM24.5171 42.7547C24.3604 42.7547 24.2 42.6895 24.0265 42.516L5.39885 24.9756C5.10025 24.6939 5.02191 24.5072 5.02191 24.3001C5.02191 24.0893 5.11707 23.8858 5.39885 23.6209L24.0097 5.9181C24.1664 5.79875 24.3268 5.69046 24.5171 5.69046C24.7464 5.69046 24.9215 5.85822 24.9215 6.09857L24.9215 16.5137C24.9215 17.0916 25.1676 17.3582 25.7623 17.3582L28.9078 17.3582C45.8949 17.3582 52.4504 28.3767 52.8199 42.2002C52.8199 42.3942 52.7379 42.5062 52.6054 42.5062C52.4692 42.5062 52.3946 42.3811 52.2958 42.1702C49.0965 35.1869 41.2699 31.3093 28.9078 31.3093L25.7623 31.3093C25.1676 31.3093 24.9215 31.5554 24.9215 32.1501L24.9215 42.3261C24.9215 42.5796 24.7632 42.7547 24.5171 42.7547Z" fill="#ffffff" fill-opacity="0.85"/>
 </g>
</svg>
