<?xml version="1.0" encoding="UTF-8"?>
<!--Generator: Apple Native CoreSVG 232.5-->
<!DOCTYPE svg
PUBLIC "-//W3C//DTD SVG 1.1//EN"
       "http://www.w3.org/Graphics/SVG/1.1/DTD/svg11.dtd">
<svg version="1.1" xmlns="http://www.w3.org/2000/svg" xmlns:xlink="http://www.w3.org/1999/xlink" width="67.7822" height="55.5581">
 <g>
  <rect height="55.5581" opacity="0" width="67.7822" x="0" y="0"/>
  <path d="M29.6517 55.5197C31.7882 55.5197 33.3009 53.9494 33.3009 51.8362L33.3009 40.544L34.1672 40.544C45.8601 40.544 52.9777 43.8642 57.6492 52.9462C58.726 54.9511 60.0267 55.4184 61.4775 55.4184C63.3506 55.4184 64.8173 53.6991 64.8173 50.4464C64.8173 28.0233 54.72 15.1139 34.1672 15.1139L33.3009 15.1139L33.3009 3.83483C33.3009 1.71749 31.7882 0 29.609 0C28.1273 0 27.0759 0.638905 25.537 2.06296L1.64859 24.3262C0.387185 25.5173 0 26.6817 0 27.7715C0 28.8019 0.410623 30.0108 1.65281 31.1826L25.537 53.5847C26.9461 54.9108 28.1489 55.5197 29.6517 55.5197Z" fill="#ffffff" fill-opacity="0.85"/>
 </g>
</svg>
