<svg width="24" height="24" viewBox="0 0 24 24" fill="none" xmlns="http://www.w3.org/2000/svg">
       <path fill-rule="evenodd" clip-rule="evenodd" d="M12.8947 2.57129H11.1054C9.93705 2.57128 9.00788 2.57128 8.25823 2.63253C7.49057 2.69525 6.83599 2.82644 6.23664 3.13183C5.26895 3.62489 4.48219 4.41165 3.98913 5.37934C3.68374 5.97869 3.55255 6.63327 3.48983 7.40093C3.42858 8.15056 3.42858 9.07972 3.42859 10.248V17.6581C3.42858 18.5212 3.42857 19.2282 3.47838 19.7756C3.5277 20.3176 3.63584 20.8743 3.98376 21.3139C4.46672 21.9241 5.2 22.2827 5.97814 22.2893C6.53871 22.2941 7.04459 22.0376 7.50266 21.7438C7.96532 21.4471 8.52338 21.013 9.20462 20.4832L10.8423 19.2094C11.5071 18.6923 11.6503 18.6015 11.776 18.5675C11.9227 18.5278 12.0773 18.5278 12.224 18.5675C12.3497 18.6015 12.4929 18.6923 13.1577 19.2094L14.7954 20.4831C15.4766 21.013 16.0347 21.4471 16.4974 21.7438C16.9555 22.0376 17.4613 22.2941 18.0219 22.2893C18.8 22.2827 19.5333 21.9241 20.0163 21.3139C20.3642 20.8743 20.4723 20.3176 20.5217 19.7756C20.5715 19.2282 20.5715 18.5212 20.5714 17.6582V10.248C20.5715 9.07977 20.5715 8.15055 20.5102 7.40093C20.4475 6.63327 20.3163 5.97869 20.0109 5.37934C19.5178 4.41165 18.7311 3.62489 17.7634 3.13183C17.164 2.82644 16.5095 2.69525 15.7418 2.63253C14.9922 2.57128 14.063 2.57128 12.8947 2.57129Z" fill="white"/>
</svg>
