<svg width="25" height="25" viewBox="0 0 25 25" fill="none" xmlns="http://www.w3.org/2000/svg">
<path d="M12.0714 3.07129H11.6063C10.4377 3.07128 9.50819 3.07128 8.75822 3.1328C7.99012 3.19581 7.33502 3.32763 6.73532 3.6345C5.76734 4.12981 4.98102 4.91981 4.48846 5.89065C4.18354 6.49164 4.05248 7.14806 3.9898 7.91849C3.92858 8.67103 3.92858 9.60391 3.92859 10.7775V18.1379C3.92858 19.0049 3.92857 19.7147 3.97835 20.2641C4.02763 20.8078 4.13556 21.3655 4.48266 21.8059C4.96508 22.418 5.69856 22.7789 6.47811 22.7855C7.03976 22.7903 7.54619 22.5323 8.00406 22.2374C8.46673 21.9394 9.02479 21.5034 9.70603 20.9713L11.3437 19.6921C12.0087 19.1727 12.1517 19.0817 12.2769 19.0477C12.423 19.0079 12.577 19.0079 12.7231 19.0477C12.8483 19.0817 12.9913 19.1727 13.6563 19.6921L15.294 20.9713C15.9752 21.5034 16.5333 21.9394 16.996 22.2374C17.4539 22.5323 17.9603 22.7903 18.5219 22.7855C19.3015 22.7789 20.035 22.418 20.5174 21.8059C20.8645 21.3655 20.9724 20.8078 21.0217 20.2641C21.0715 19.7147 21.0715 19.0049 21.0714 18.1379V15.8075C21.0714 15.3341 20.6877 14.9504 20.2143 14.9504C19.7409 14.9504 19.3572 15.3341 19.3572 15.8075V18.0948C19.3572 19.0155 19.3563 19.6468 19.3144 20.1094C19.2711 20.5867 19.194 20.7156 19.171 20.7448C19.0095 20.9497 18.7653 21.0691 18.5073 21.0713C18.4726 21.0716 18.3257 21.0548 17.9243 20.7962C17.5353 20.5456 17.0389 20.159 16.3151 19.5936L14.7116 18.3411L14.6056 18.2581C14.111 17.8706 13.6771 17.5305 13.1729 17.3935C12.7323 17.2736 12.2678 17.2736 11.8271 17.3935C11.3229 17.5305 10.889 17.8706 10.3944 18.2582L10.2884 18.3411L8.68491 19.5936C7.96115 20.159 7.46473 20.5456 7.07577 20.7962C6.6743 21.0548 6.52743 21.0716 6.49276 21.0713C6.23479 21.0691 5.99056 20.9497 5.82904 20.7448C5.80602 20.7156 5.7289 20.5867 5.68564 20.1094C5.64372 19.6468 5.64288 19.0155 5.64288 18.0948V10.8149C5.64288 9.59554 5.64354 8.73238 5.69844 8.0575C5.75254 7.39251 5.85504 6.98598 6.01724 6.66629C6.34645 6.01742 6.87139 5.49055 7.51623 5.16059C7.83329 4.99835 8.23681 4.89561 8.89838 4.84134C9.57004 4.78625 10.4293 4.78558 11.644 4.78558H12.0714C12.5448 4.78558 12.9286 4.40182 12.9286 3.92843C12.9286 3.45505 12.5448 3.07129 12.0714 3.07129Z" fill="white"/>
<path fill-rule="evenodd" clip-rule="evenodd" d="M23.6429 8.21415C23.6429 5.37382 21.3403 3.07129 18.5 3.07129C15.6597 3.07129 13.3572 5.37382 13.3572 8.21415C13.3572 11.0545 15.6597 13.357 18.5 13.357C21.3403 13.357 23.6429 11.0545 23.6429 8.21415ZM17.6486 5.54276C17.6982 5.11647 18.0604 4.78558 18.5 4.78558C18.9734 4.78558 19.3572 5.16933 19.3572 5.64272V7.357H21.0714L21.1714 7.36277C21.5977 7.41228 21.9286 7.77457 21.9286 8.21415C21.9286 8.68753 21.5448 9.07129 21.0714 9.07129H19.3572V10.7856L19.3514 10.8855C19.3019 11.3118 18.9396 11.6427 18.5 11.6427C18.0266 11.6427 17.6429 11.259 17.6429 10.7856V9.07129H15.9286L15.8286 9.06552C15.4023 9.01601 15.0714 8.65372 15.0714 8.21415C15.0714 7.74076 15.4552 7.357 15.9286 7.357H17.6429V5.64272L17.6486 5.54276Z" fill="white"/>
</svg>
