<?xml version="1.0" encoding="UTF-8"?>
<!--Generator: Apple Native CoreSVG 232.5-->
<!DOCTYPE svg
PUBLIC "-//W3C//DTD SVG 1.1//EN"
       "http://www.w3.org/Graphics/SVG/1.1/DTD/svg11.dtd">
<svg version="1.1" xmlns="http://www.w3.org/2000/svg" xmlns:xlink="http://www.w3.org/1999/xlink" width="46.2525" height="46.396">
 <g>
  <rect height="46.396" opacity="0" width="46.2525" x="0" y="0"/>
  <path d="M17.2516 46.396C18.4443 46.396 19.3466 45.8952 20.0016 44.9388L45.1984 5.70155C45.686 4.95507 45.8833 4.3263 45.8833 3.71969C45.8833 2.12911 44.7751 1.03934 43.1697 1.03934C42.0685 1.03934 41.3971 1.43186 40.7367 2.49784L17.149 39.7409L5.12363 24.5885C4.45918 23.7153 3.77833 23.3354 2.76033 23.3354C1.1513 23.3354 0 24.4625 0 26.04C0 26.7319 0.241991 27.4001 0.829739 28.1051L14.4711 44.9642C15.2697 45.951 16.1089 46.396 17.2516 46.396Z" fill="#ffffff" fill-opacity="0.85"/>
 </g>
</svg>
