<?xml version="1.0" encoding="UTF-8"?>
<!--Generator: Apple Native CoreSVG 232.5-->
<!DOCTYPE svg
PUBLIC "-//W3C//DTD SVG 1.1//EN"
       "http://www.w3.org/Graphics/SVG/1.1/DTD/svg11.dtd">
<svg version="1.1" xmlns="http://www.w3.org/2000/svg" xmlns:xlink="http://www.w3.org/1999/xlink" width="50.2474" height="45.8251">
 <g>
  <rect height="45.8251" opacity="0" width="50.2474" x="0" y="0"/>
  <path d="M26.3053 45.7746C27.0346 45.7746 27.656 45.4974 28.1637 44.997L48.9337 24.9756C49.562 24.3641 49.8782 23.6963 49.8782 22.9023C49.8709 22.1008 49.5415 21.3864 48.9168 20.7953L28.1469 0.773958C27.6429 0.269881 27.042 0 26.3053 0C24.8079 0 23.6455 1.15868 23.6455 2.64507C23.6455 3.34438 23.9412 4.03262 24.4375 4.55515L44.7415 24.07L44.7415 21.6862L24.4375 41.2289C23.9449 41.7383 23.6455 42.4024 23.6455 43.1427C23.6455 44.6123 24.8079 45.7746 26.3053 45.7746Z" fill="#ffffff" fill-opacity="0.85"/>
  <path d="M2.65984 45.7746C3.38909 45.7746 4.01047 45.4974 4.51824 44.997L25.2882 24.9756C25.9165 24.3641 26.2327 23.6963 26.2327 22.9023C26.229 22.1008 25.896 21.3864 25.2713 20.7953L4.50142 0.773958C3.99735 0.269881 3.39647 0 2.65984 0C1.16606 0 0 1.15868 0 2.64507C0 3.34438 0.29572 4.03262 0.792003 4.55515L21.096 24.07L21.096 21.6862L0.792003 41.2289C0.299411 41.7383 0 42.4024 0 43.1427C0 44.6123 1.16606 45.7746 2.65984 45.7746Z" fill="#ffffff" fill-opacity="0.85"/>
 </g>
</svg>
