<svg width="74" height="74" viewBox="0 0 74 74" fill="none" xmlns="http://www.w3.org/2000/svg">
<path fill-rule="evenodd" clip-rule="evenodd" d="M18.4999 30.393C18.4999 22.3651 25.0078 15.8572 33.0356 15.8572C39.9075 15.8572 45.6715 20.6284 47.1838 27.0417C47.4716 28.2623 48.5775 29.1125 49.831 29.077C49.9583 29.0734 50.086 29.0715 50.2142 29.0715C57.5123 29.0715 63.4285 34.9878 63.4285 42.2858C63.4285 49.5839 57.5123 55.5001 50.2142 55.5001H47.5714C46.1118 55.5001 44.9285 56.6834 44.9285 58.143C44.9285 59.6026 46.1118 60.7858 47.5714 60.7858H50.2142C60.4315 60.7858 68.7142 52.5031 68.7142 42.2858C68.7142 32.5859 61.249 24.6295 51.7505 23.8487C49.047 16.1181 41.6918 10.5715 33.0356 10.5715C22.0886 10.5715 13.2142 19.4459 13.2142 30.393C13.2142 30.658 13.2194 30.9219 13.2298 31.1846C8.48477 33.9222 5.28564 39.0494 5.28564 44.9287C5.28564 53.6863 12.3851 60.7858 21.1428 60.7858H26.4285C27.8881 60.7858 29.0714 59.6026 29.0714 58.143C29.0714 56.6834 27.8881 55.5001 26.4285 55.5001H21.1428C15.3043 55.5001 10.5714 50.7671 10.5714 44.9287C10.5714 40.5486 13.2358 36.7847 17.0428 35.181C18.1444 34.7169 18.7974 33.5712 18.6352 32.3868C18.5461 31.7362 18.4999 31.0707 18.4999 30.393ZM34.3571 63.4287C34.3571 64.8883 35.5403 66.0715 36.9999 66.0715C38.4595 66.0715 39.6428 64.8883 39.6428 63.4287V38.0948L45.7026 44.1546C46.7347 45.1867 48.408 45.1867 49.4401 44.1546C50.4722 43.1225 50.4722 41.4491 49.4401 40.417L38.8687 29.8456C37.8366 28.8135 36.1633 28.8135 35.1312 29.8456L24.5597 40.417C23.5276 41.4491 23.5276 43.1225 24.5597 44.1546C25.5918 45.1867 27.2652 45.1867 28.2973 44.1546L34.3571 38.0948V63.4287Z" fill="white"/>
</svg>
