<svg width="26" height="26" viewBox="0 0 26 26" fill="none" xmlns="http://www.w3.org/2000/svg">
<path d="M19.003 8.49978H17.518C16.9262 7.90455 16.2224 7.43236 15.4473 7.11043C14.6721 6.78849 13.8409 6.62318 13.0015 6.62403C12.162 6.62308 11.3306 6.78835 10.5553 7.11028C9.78004 7.43222 9.07615 7.90446 8.48425 8.49978H7C7.69835 7.56743 8.60447 6.81076 9.6464 6.28986C10.6883 5.76896 11.8374 5.49818 13.0023 5.49903C14.1669 5.49841 15.3156 5.76931 16.3573 6.2902C17.3989 6.81109 18.3048 7.56763 19.003 8.49978ZM6.625 12.9998C6.625 12.7463 6.6395 12.4963 6.6685 12.2498H5.5375C5.5135 12.4973 5.50125 12.7473 5.50075 12.9998C5.50075 17.1428 8.85925 20.5013 13.0023 20.5013C16.8918 20.5013 20.0898 17.541 20.4662 13.7498H19.75V14.4998H19.2003C18.8342 16.0175 17.9241 17.3481 16.6424 18.2396C15.3607 19.131 13.7965 19.5212 12.2463 19.3363C10.696 19.1514 9.2675 18.4042 8.23144 17.2363C7.19539 16.0684 6.62379 14.561 6.625 12.9998ZM13.0015 16.3763C12.4903 16.3771 11.9856 16.2614 11.5257 16.0382C11.0659 15.8149 10.6629 15.4899 10.3472 15.0878C10.3022 15.0279 10.2457 14.9776 10.1809 14.9399C10.1162 14.9021 10.0446 14.8777 9.97026 14.8681C9.89596 14.8584 9.82047 14.8637 9.74823 14.8836C9.676 14.9035 9.60847 14.9376 9.5496 14.984C9.49074 15.0304 9.44174 15.088 9.40547 15.1536C9.36921 15.2192 9.3464 15.2913 9.33841 15.3658C9.33041 15.4403 9.33738 15.5157 9.3589 15.5875C9.38043 15.6592 9.41607 15.726 9.46375 15.7838C9.8846 16.3196 10.4218 16.7526 11.0347 17.0502C11.6476 17.3477 12.3202 17.502 13.0015 17.5013C13.6818 17.502 14.3534 17.3481 14.9656 17.0514C15.5778 16.7547 16.1146 16.3228 16.5355 15.7883C16.5813 15.7303 16.6152 15.6639 16.6354 15.5928C16.6555 15.5217 16.6614 15.4474 16.6528 15.374C16.6442 15.3007 16.6213 15.2297 16.5852 15.1652C16.5492 15.1007 16.5008 15.0439 16.4429 14.9981C16.3849 14.9524 16.3185 14.9184 16.2474 14.8983C16.1763 14.8782 16.102 14.8722 16.0286 14.8808C15.9553 14.8894 15.8843 14.9124 15.8198 14.9484C15.7553 14.9844 15.6985 15.0328 15.6528 15.0908C15.3366 15.4918 14.9336 15.8158 14.4741 16.0385C14.0146 16.2611 13.5106 16.3766 13 16.3763M6.25 9.24978H20.5V11.4998H19.75V12.9998H19V13.7498H15.25V12.9998H14.5V11.4998H13V12.9998H12.25V13.7498H8.5V12.9998H7.75V11.4998H7V10.7498H5.5V9.99978H6.25V9.24978ZM4.75 11.4998V10.7498H5.5V11.4998H4.75ZM4.75 11.4998H4V12.9998H4.75V11.4998ZM9.25 10.7498H8.5V11.4998H9.25V12.2498H10V11.4998H9.25V10.7498ZM16 10.7498H15.25V11.4998H16V12.2498H16.75V11.4998H16V10.7498Z" fill="white"/>
</svg>
