<?xml version="1.0" encoding="UTF-8"?>
<!--Generator: Apple Native CoreSVG 232.5-->
<!DOCTYPE svg
PUBLIC "-//W3C//DTD SVG 1.1//EN"
       "http://www.w3.org/Graphics/SVG/1.1/DTD/svg11.dtd">
<svg version="1.1" xmlns="http://www.w3.org/2000/svg" xmlns:xlink="http://www.w3.org/1999/xlink" width="54.9228" height="66.8579">
 <g>
  <rect height="66.8579" opacity="0" width="54.9228" x="0" y="0"/>
  <path d="M38.206 2.56142L51.9996 16.558C53.9093 18.5161 54.5536 20.5053 54.5536 23.5918L54.5536 45.1324C54.5536 50.6227 51.7346 53.4827 46.2816 53.4827L41.5295 53.4827L41.5295 48.9743L45.9125 48.9743C48.6605 48.9743 50.0489 47.5338 50.0489 44.8752L50.0489 22.4589L37.7147 22.4589C34.6574 22.4589 33.0319 20.9007 33.0319 17.7762L33.0319 4.5084L21.6821 4.5084C18.9172 4.5084 17.5288 5.99932 17.5288 8.62433L17.5288 13.3079L13.0241 13.3079L13.0241 8.35036C13.0241 2.86001 15.8804 0 21.3166 0L31.5504 0C34.2661 0 36.3689 0.700133 38.206 2.56142ZM36.8468 17.236C36.8468 18.2376 37.27 18.6441 38.2548 18.6441L48.8131 18.6441L36.8468 6.53211Z" fill="#ffffff" fill-opacity="0.85"/>
  <path d="M0 58.4403C0 63.9511 2.82269 66.7906 8.27571 66.7906L33.2575 66.7906C38.7105 66.7906 41.5295 63.9306 41.5295 58.4403L41.5295 37.6269C41.5295 34.3719 41.1161 32.8654 39.0797 30.8122L24.2119 15.7578C22.2669 13.7755 20.6317 13.3079 17.6716 13.3079L8.27571 13.3079C2.85632 13.3079 0 16.1811 0 21.6546ZM4.5084 58.1831L4.5084 21.9286C4.5084 19.3072 5.89309 17.8126 8.65797 17.8126L17.3759 17.8126L17.3759 32.7743C17.3759 36.3181 19.1211 37.9997 22.6012 37.9997L37.0248 37.9997L37.0248 58.1831C37.0248 60.8418 35.6364 62.2822 32.8716 62.2822L8.64115 62.2822C5.89309 62.2822 4.5084 60.8418 4.5084 58.1831ZM23.0372 33.988C21.8646 33.988 21.3876 33.511 21.3876 32.3383L21.3876 18.8265L36.3624 33.988Z" fill="#ffffff" fill-opacity="0.85"/>
 </g>
</svg>
