<?xml version="1.0" encoding="UTF-8"?>
<!--Generator: Apple Native CoreSVG 232.5-->
<!DOCTYPE svg
PUBLIC "-//W3C//DTD SVG 1.1//EN"
       "http://www.w3.org/Graphics/SVG/1.1/DTD/svg11.dtd">
<svg version="1.1" xmlns="http://www.w3.org/2000/svg" xmlns:xlink="http://www.w3.org/1999/xlink" width="49.2958" height="10.2457">
 <g>
  <rect height="10.2457" opacity="0" width="49.2958" x="0" y="0"/>
  <path d="M43.8178 10.2047C46.6368 10.2047 48.9267 7.92789 48.9267 5.11258C48.9267 2.27677 46.6368 0 43.8178 0C40.9988 0 38.7089 2.27677 38.7089 5.11258C38.7089 7.92789 40.9988 10.2047 43.8178 10.2047Z" fill="#ffffff" fill-opacity="0.85"/>
  <path d="M24.4568 10.2047C27.2889 10.2047 29.5657 7.92789 29.5657 5.11258C29.5657 2.27677 27.2889 0 24.4568 0C21.6378 0 19.361 2.27677 19.361 5.11258C19.361 7.92789 21.6378 10.2047 24.4568 10.2047Z" fill="#ffffff" fill-opacity="0.85"/>
  <path d="M5.10889 10.2047C7.92789 10.2047 10.2215 7.92789 10.2215 5.11258C10.2215 2.27677 7.92789 0 5.10889 0C2.27677 0 0 2.27677 0 5.11258C0 7.92789 2.27677 10.2047 5.10889 10.2047Z" fill="#ffffff" fill-opacity="0.85"/>
 </g>
</svg>
