<svg width="18" height="18" viewBox="0 0 18 18" fill="none" xmlns="http://www.w3.org/2000/svg">
<path d="M14.625 10.125C14.6265 10.3543 14.5568 10.5785 14.4256 10.7666C14.2944 10.9547 14.1081 11.0976 13.8924 11.1755L10.2657 12.5156L8.92974 16.1452C8.85062 16.3601 8.70749 16.5456 8.51965 16.6766C8.3318 16.8076 8.10829 16.8779 7.87927 16.8779C7.65025 16.8779 7.42673 16.8076 7.23889 16.6766C7.05105 16.5456 6.90791 16.3601 6.8288 16.1452L5.48443 12.5156L1.85489 11.1797C1.63997 11.1006 1.45448 10.9574 1.32346 10.7696C1.19244 10.5818 1.12219 10.3582 1.12219 10.1292C1.12219 9.90019 1.19244 9.67668 1.32346 9.48884C1.45448 9.30099 1.63997 9.15786 1.85489 9.07875L5.48443 7.73437L6.82036 4.10484C6.89948 3.88992 7.04261 3.70443 7.23045 3.57341C7.4183 3.44239 7.64181 3.37214 7.87083 3.37214C8.09985 3.37214 8.32337 3.44239 8.51121 3.57341C8.69905 3.70443 8.84219 3.88992 8.9213 4.10484L10.2657 7.73437L13.8952 9.07031C14.1111 9.14892 14.2972 9.29259 14.428 9.48151C14.5587 9.67043 14.6276 9.89527 14.625 10.125ZM10.6875 3.375H11.8125V4.5C11.8125 4.64918 11.8718 4.79226 11.9773 4.89775C12.0828 5.00324 12.2259 5.0625 12.375 5.0625C12.5242 5.0625 12.6673 5.00324 12.7728 4.89775C12.8783 4.79226 12.9375 4.64918 12.9375 4.5V3.375H14.0625C14.2117 3.375 14.3548 3.31574 14.4603 3.21025C14.5658 3.10476 14.625 2.96168 14.625 2.8125C14.625 2.66332 14.5658 2.52024 14.4603 2.41475C14.3548 2.30926 14.2117 2.25 14.0625 2.25H12.9375V1.125C12.9375 0.975816 12.8783 0.832742 12.7728 0.727252C12.6673 0.621763 12.5242 0.5625 12.375 0.5625C12.2259 0.5625 12.0828 0.621763 11.9773 0.727252C11.8718 0.832742 11.8125 0.975816 11.8125 1.125V2.25H10.6875C10.5384 2.25 10.3953 2.30926 10.2898 2.41475C10.1843 2.52024 10.125 2.66332 10.125 2.8125C10.125 2.96168 10.1843 3.10476 10.2898 3.21025C10.3953 3.31574 10.5384 3.375 10.6875 3.375ZM16.875 5.625H16.3125V5.0625C16.3125 4.91331 16.2533 4.77024 16.1478 4.66475C16.0423 4.55926 15.8992 4.5 15.75 4.5C15.6009 4.5 15.4578 4.55926 15.3523 4.66475C15.2468 4.77024 15.1875 4.91331 15.1875 5.0625V5.625H14.625C14.4759 5.625 14.3328 5.68426 14.2273 5.78975C14.1218 5.89524 14.0625 6.03831 14.0625 6.1875C14.0625 6.33668 14.1218 6.47976 14.2273 6.58525C14.3328 6.69074 14.4759 6.75 14.625 6.75H15.1875V7.3125C15.1875 7.46168 15.2468 7.60476 15.3523 7.71025C15.4578 7.81574 15.6009 7.875 15.75 7.875C15.8992 7.875 16.0423 7.81574 16.1478 7.71025C16.2533 7.60476 16.3125 7.46168 16.3125 7.3125V6.75H16.875C17.0242 6.75 17.1673 6.69074 17.2728 6.58525C17.3783 6.47976 17.4375 6.33668 17.4375 6.1875C17.4375 6.03831 17.3783 5.89524 17.2728 5.78975C17.1673 5.68426 17.0242 5.625 16.875 5.625Z" fill="white"/>
</svg>
