<?xml version="1.0" encoding="UTF-8"?>
<!--Generator: Apple Native CoreSVG 232.5-->
<!DOCTYPE svg
PUBLIC "-//W3C//DTD SVG 1.1//EN"
       "http://www.w3.org/Graphics/SVG/1.1/DTD/svg11.dtd">
<svg version="1.1" xmlns="http://www.w3.org/2000/svg" xmlns:xlink="http://www.w3.org/1999/xlink" width="46.5289" height="49.0186">
 <g>
  <rect height="49.0186" opacity="0" width="46.5289" x="0" y="0"/>
  <path d="M6.33362 48.9944L39.8262 48.9944C44.1066 48.9944 46.1598 47.6232 46.1598 44.6832C46.1598 37.5248 37.193 27.8131 23.0696 27.8131C8.96313 27.8131 0 37.5248 0 44.6832C0 47.6232 2.05324 48.9944 6.33362 48.9944ZM5.57605 44.9827C4.69298 44.9827 4.37552 44.7271 4.37552 44.0811C4.37552 39.6313 11.1431 31.8453 23.0696 31.8453C35.0167 31.8453 41.7843 39.6313 41.7843 44.0811C41.7843 44.7271 41.4631 44.9827 40.5837 44.9827ZM23.1033 24.5261C29.4131 24.5261 34.4872 18.9915 34.4872 12.1185C34.4872 5.37961 29.402 0 23.1033 0C16.825 0 11.7063 5.45425 11.7063 12.1558C11.7063 19.0083 16.7934 24.5261 23.1033 24.5261ZM23.1033 20.5144C19.169 20.5144 15.9046 16.8988 15.9046 12.1521C15.9046 7.56368 19.1596 4.01541 23.1033 4.01541C27.0543 4.01541 30.2888 7.50954 30.2888 12.1185C30.2888 16.8615 27.0449 20.5144 23.1033 20.5144Z" fill="#ffffff" fill-opacity="0.85"/>
 </g>
</svg>
