<?xml version="1.0" encoding="UTF-8"?>
<!--Generator: Apple Native CoreSVG 232.5-->
<!DOCTYPE svg
PUBLIC "-//W3C//DTD SVG 1.1//EN"
       "http://www.w3.org/Graphics/SVG/1.1/DTD/svg11.dtd">
<svg version="1.1" xmlns="http://www.w3.org/2000/svg" xmlns:xlink="http://www.w3.org/1999/xlink" width="190.23" height="148.94">
 <g>
  <rect height="148.94" opacity="0" width="190.23" x="0" y="0"/>
  <path d="M182.91 120.304L134.544 75.205C130.89 71.8125 126.742 70.1475 122.259 70.1475C117.741 70.1475 113.792 71.7387 110.065 75.08L73.5187 107.722L58.5125 94.0737C55.0862 91.0225 51.4787 89.42 47.5862 89.42C43.7912 89.42 40.495 90.9087 37.2225 93.96L6.8512 121.43C7.51746 135.779 13.7699 142.854 26.6449 142.854L160.505 142.854C176.042 142.854 183.399 134.702 182.91 120.304ZM25.4487 148.94L164.73 148.94C181.525 148.94 190.23 140.235 190.23 123.719L190.23 25.2837C190.23 8.71623 181.525 0.0224991 164.73 0.0224991L25.4487 0.0224991C8.71623 0.0224991 0 8.66498 0 25.2837L0 123.719C0 140.337 8.71623 148.94 25.4487 148.94ZM26.2724 135.211C18.1299 135.211 13.7399 130.98 13.7399 122.554L13.7399 26.4087C13.7399 18.0337 18.1299 13.7511 26.2724 13.7511L163.946 13.7511C171.946 13.7511 176.439 18.0337 176.439 26.4087L176.439 122.554C176.439 130.98 171.946 135.211 163.946 135.211Z" fill="#ffffff" fill-opacity="0.85"/>
  <path d="M61.5762 76.0074C72.1374 76.0074 80.7724 67.3724 80.7724 56.7374C80.7724 46.1762 72.1374 37.4275 61.5762 37.4275C50.9412 37.4275 42.3174 46.1762 42.3174 56.7374C42.3174 67.3724 50.9412 76.0074 61.5762 76.0074Z" fill="#ffffff" fill-opacity="0.85"/>
 </g>
</svg>
