<svg width="24" height="24" viewBox="0 0 24 24" fill="none" xmlns="http://www.w3.org/2000/svg">
<path fill-rule="evenodd" clip-rule="evenodd" d="M6 8.66667C6 7.73325 6 7.26654 6.18166 6.91002C6.34144 6.59641 6.59641 6.34144 6.91002 6.18166C7.26654 6 7.73325 6 8.66667 6H15.3333C16.2668 6 16.7335 6 17.09 6.18166C17.4036 6.34144 17.6586 6.59641 17.8183 6.91002C18 7.26654 18 7.73325 18 8.66667C18 9.60009 18 10.0668 17.8183 10.4233C17.6586 10.7369 17.4036 10.9919 17.09 11.1517C16.7335 11.3333 16.2668 11.3333 15.3333 11.3333H8.66667C7.73325 11.3333 7.26654 11.3333 6.91002 11.1517C6.59641 10.9919 6.34144 10.7369 6.18166 10.4233C6 10.0668 6 9.60009 6 8.66667ZM8.66667 7.2H15.3333C15.8198 7.2 16.1126 7.20093 16.3303 7.21872C16.4778 7.23077 16.5344 7.24733 16.5471 7.25185C16.6334 7.29632 16.7037 7.36659 16.7481 7.45288C16.7527 7.46562 16.7692 7.52221 16.7813 7.66972C16.7991 7.88744 16.8 8.18016 16.8 8.66667C16.8 9.15318 16.7991 9.44589 16.7813 9.66361C16.7692 9.81112 16.7527 9.86771 16.7482 9.88045C16.7037 9.96674 16.6334 10.037 16.5471 10.0815C16.5344 10.086 16.4778 10.1026 16.3303 10.1146C16.1126 10.1324 15.8198 10.1333 15.3333 10.1333H8.66667C8.18016 10.1333 7.88744 10.1324 7.66972 10.1146C7.5222 10.1026 7.46562 10.086 7.45288 10.0815C7.36659 10.037 7.29632 9.96674 7.25185 9.88046C7.24733 9.86772 7.23077 9.81113 7.21872 9.66361C7.20093 9.44589 7.2 9.15318 7.2 8.66667C7.2 8.18016 7.20093 7.88744 7.21872 7.66972C7.23077 7.5222 7.24733 7.46562 7.25185 7.45288C7.29632 7.36659 7.36659 7.29632 7.45288 7.25185C7.46562 7.24733 7.5222 7.23077 7.66972 7.21872C7.88744 7.20093 8.18016 7.2 8.66667 7.2ZM16.7472 9.88266C16.747 9.88311 16.747 9.88336 16.747 9.88339C16.747 9.88346 16.7475 9.88229 16.7482 9.88045C16.7478 9.88123 16.7474 9.88223 16.7472 9.88266ZM16.5501 10.0803C16.5501 10.0803 16.5503 10.0802 16.5501 10.0803V10.0803Z" fill="white" fill-opacity="0.7"/>
<path fill-rule="evenodd" clip-rule="evenodd" d="M6 15.3333C6 14.3999 6 13.9332 6.18166 13.5767C6.34144 13.2631 6.59641 13.0081 6.91002 12.8483C7.26654 12.6667 7.73325 12.6667 8.66667 12.6667H15.3333C16.2668 12.6667 16.7335 12.6667 17.09 12.8483C17.4036 13.0081 17.6586 13.2631 17.8183 13.5767C18 13.9332 18 14.3999 18 15.3333C18 16.2668 18 16.7335 17.8183 17.09C17.6586 17.4036 17.4036 17.6586 17.09 17.8183C16.7335 18 16.2668 18 15.3333 18H8.66667C7.73325 18 7.26654 18 6.91002 17.8183C6.59641 17.6586 6.34144 17.4036 6.18166 17.09C6 16.7335 6 16.2668 6 15.3333ZM8.66667 13.8667H15.3333C15.8198 13.8667 16.1126 13.8676 16.3303 13.8854C16.4778 13.8974 16.5344 13.914 16.5471 13.9185C16.6334 13.963 16.7037 14.0333 16.7481 14.1195C16.7527 14.1323 16.7692 14.1889 16.7813 14.3364C16.7991 14.5541 16.8 14.8468 16.8 15.3333C16.8 15.8198 16.7991 16.1126 16.7813 16.3303C16.7692 16.4778 16.7527 16.5344 16.7482 16.5471C16.7037 16.6334 16.6334 16.7037 16.5471 16.7481C16.5344 16.7527 16.4778 16.7692 16.3303 16.7813C16.1126 16.7991 15.8198 16.8 15.3333 16.8H8.66667C8.18016 16.8 7.88744 16.7991 7.66972 16.7813C7.5222 16.7692 7.46562 16.7527 7.45288 16.7481C7.36659 16.7037 7.29632 16.6334 7.25185 16.5471C7.24733 16.5344 7.23077 16.4778 7.21872 16.3303C7.20093 16.1126 7.2 15.8198 7.2 15.3333C7.2 14.8468 7.20093 14.5541 7.21872 14.3364C7.23077 14.1889 7.24733 14.1323 7.25185 14.1195C7.29632 14.0333 7.36659 13.963 7.45288 13.9185C7.46562 13.914 7.5222 13.8974 7.66972 13.8854C7.88744 13.8676 8.18016 13.8667 8.66667 13.8667ZM16.7473 14.1173C16.7471 14.1168 16.747 14.1166 16.747 14.1166C16.7469 14.1167 16.7474 14.1179 16.7481 14.1195C16.7479 14.1187 16.7475 14.1177 16.7473 14.1173ZM16.7482 16.5471C16.7474 16.5487 16.747 16.55 16.747 16.5501C16.747 16.5501 16.7471 16.5498 16.7473 16.5493C16.7475 16.5488 16.7479 16.5479 16.7482 16.5471ZM16.5471 16.7481C16.5489 16.7475 16.5501 16.747 16.5501 16.747C16.55 16.747 16.5497 16.7471 16.549 16.7474C16.5486 16.7475 16.5477 16.7479 16.5471 16.7481Z" fill="white" fill-opacity="0.7"/>
</svg>
