<svg width="24" height="24" viewBox="0 0 24 24" fill="none" xmlns="http://www.w3.org/2000/svg">
<path d="M12 3.89998C16.4735 3.89998 20.1 7.52647 20.1 12V13.125C20.1 13.622 20.5029 14.025 21 14.025C21.497 14.025 21.9 13.622 21.9 13.125V12C21.9 6.53236 17.4676 2.09998 12 2.09998C6.53236 2.09998 2.09998 6.53236 2.09998 12C2.09998 17.4676 6.53236 21.9 12 21.9H13.125C13.622 21.9 14.025 21.497 14.025 21C14.025 20.5029 13.622 20.1 13.125 20.1H12C7.52647 20.1 3.89997 16.4735 3.89997 12C3.89998 7.52647 7.52647 3.89998 12 3.89998Z" fill="white"/>
<path d="M22.1001 19.9C22.5971 19.9 23.0001 19.497 23.0001 19C23.0001 18.5029 22.5971 18.1 22.1001 18.1H19.9V15.9C19.9 15.4029 19.497 15 19 15C18.5029 15 18.1 15.4029 18.1 15.9V18.1H15.9001C15.403 18.1 15.0001 18.5029 15.0001 19C15.0001 19.497 15.403 19.9 15.9001 19.9H18.1V22.1C18.1 22.597 18.5029 23 19 23C19.497 23 19.9 22.597 19.9 22.1V19.9H22.1001Z" fill="white"/>
<path d="M10.25 10.25C10.25 10.9403 9.69033 11.5 8.99998 11.5C8.30962 11.5 7.74998 10.9403 7.74998 10.25C7.74998 9.55962 8.30962 8.99998 8.99998 8.99998C9.69033 8.99998 10.25 9.55962 10.25 10.25Z" fill="white"/>
<path d="M15 11.5C15.6903 11.5 16.25 10.9403 16.25 10.25C16.25 9.55962 15.6903 8.99998 15 8.99998C14.3096 8.99998 13.75 9.55962 13.75 10.25C13.75 10.9403 14.3096 11.5 15 11.5Z" fill="white"/>
<path d="M9.69671 14.4303C9.38494 14.0488 8.82338 13.9887 8.43775 14.2972C8.04961 14.6077 7.98669 15.1741 8.29719 15.5622C8.38455 15.6632 8.47436 15.7604 8.57193 15.8519C8.73285 16.0027 8.96623 16.1965 9.27298 16.3882C9.89002 16.7738 10.8031 17.15 12 17.15C13.1969 17.15 14.1099 16.7738 14.727 16.3882C15.0337 16.1965 15.2671 16.0027 15.428 15.8519C15.5253 15.7607 15.6177 15.6648 15.7028 15.5622C16.0133 15.1741 15.9503 14.6077 15.5622 14.2972C15.1766 13.9887 14.615 14.0488 14.3032 14.4303C14.2975 14.4369 14.2617 14.478 14.1969 14.5387C14.1079 14.6222 13.9662 14.741 13.773 14.8618C13.39 15.1011 12.8031 15.35 12 15.35C11.1969 15.35 10.6099 15.1011 10.227 14.8618C10.0337 14.741 9.8921 14.6222 9.80302 14.5387C9.73827 14.478 9.70244 14.437 9.69671 14.4303Z" fill="white"/>
</svg>
