<svg width="9" height="14" viewBox="0 0 9 14" fill="none" xmlns="http://www.w3.org/2000/svg">
<path fill-rule="evenodd" clip-rule="evenodd" d="M0.0212097 13.109L0.997008 8.23004C1.1092 7.55733 1.23062 6.86644 1.36124 6.15738C1.4909 5.45349 1.61126 4.75911 1.72231 4.07425L1.724 4.06388C1.8427 3.38819 1.93342 2.75728 1.9966 2.17065L2.05257 1.65087L2.55109 1.49344C3.13339 1.30956 3.75431 1.17887 4.4118 1.09884C5.06075 1.01061 5.70623 0.966309 6.348 0.966309C7.11703 0.966309 7.91512 1.12321 8.4044 1.71592C8.8175 2.20575 8.982 2.82117 8.982 3.47431C8.982 4.07956 8.83889 4.67409 8.57237 5.25155L8.56987 5.25696C8.31018 5.80881 7.96937 6.31129 7.55023 6.76267C7.31629 7.01502 7.0656 7.24053 6.79805 7.43765C6.88168 7.63178 6.96718 7.83365 7.05455 8.04322C7.2513 8.48375 7.43446 8.9065 7.60395 9.3114L7.60887 9.32316L7.88377 10.0107C7.98803 10.248 8.08771 10.4855 8.18278 10.7232L8.49366 11.5004L4.73344 12.8104L4.50078 11.9961C4.40717 11.6685 4.3182 11.3547 4.23388 11.0549C4.2267 11.0294 4.21956 11.0039 4.21245 10.9784L4.02515 12.071L0.0212097 13.109ZM4.766 9.95631C4.84067 10.2456 4.92 10.5396 5.004 10.8383C5.01953 10.8935 5.03522 10.9492 5.05107 11.0054C5.12095 11.2531 5.19392 11.51 5.27 11.7763L7.44 11.0203C7.34667 10.787 7.24867 10.5536 7.146 10.3203L6.866 9.62031C6.698 9.21898 6.516 8.79898 6.32 8.36031C6.13333 7.91231 5.956 7.50164 5.788 7.12831C6.21733 6.90431 6.60933 6.60098 6.964 6.21831C7.328 5.82631 7.622 5.39231 7.846 4.91631C8.07 4.43097 8.182 3.95031 8.182 3.47431C8.182 2.95164 8.05133 2.53631 7.79 2.22831C7.538 1.92031 7.05733 1.76631 6.348 1.76631C5.74133 1.76631 5.13 1.80831 4.514 1.89231C3.898 1.96697 3.324 2.08831 2.792 2.25631C2.72667 2.86297 2.63333 3.51164 2.512 4.20231C2.4 4.89297 2.27866 5.59298 2.148 6.30231C2.01733 7.01164 1.896 7.70231 1.784 8.37431L1.056 12.0143L3.324 11.4263L3.576 9.95631C3.62022 9.68467 3.66658 9.40662 3.71507 9.12215C3.73823 8.98633 3.76187 8.84905 3.786 8.71031C3.82192 8.52673 3.85527 8.35509 3.88607 8.1954C3.88705 8.19036 3.88802 8.18533 3.88898 8.18031C3.92903 7.97257 3.9647 7.78523 3.996 7.61831L4.178 7.56231C4.18036 7.58829 4.18422 7.61906 4.18957 7.6546C4.20536 7.75952 4.23417 7.90608 4.276 8.09431C4.297 8.17531 4.31896 8.26017 4.34189 8.34889C4.3804 8.49788 4.42163 8.65775 4.46557 8.8285C4.46691 8.83367 4.46824 8.83886 4.46958 8.84405C4.47958 8.88291 4.48972 8.92233 4.5 8.96231C4.51087 9.00339 4.52183 9.04471 4.53286 9.08626C4.60703 9.36567 4.68475 9.65568 4.766 9.95631ZM6.25 3.79631C6.474 3.85231 6.586 3.97364 6.586 4.16031C6.586 4.30964 6.502 4.48231 6.334 4.67831C6.166 4.87431 5.956 5.06564 5.704 5.25231C5.54964 5.37105 5.39339 5.47846 5.23525 5.57454C5.14478 5.6295 5.0537 5.68076 4.962 5.72831C4.71933 5.84964 4.514 5.91964 4.346 5.93831L4.794 3.71231H4.934C4.98067 3.71231 5.032 3.70764 5.088 3.69831H5.396C5.75067 3.69831 6.03533 3.73097 6.25 3.79631ZM6.05882 4.57321L6.05718 4.57273Z" fill="white"/>
</svg>
