<svg width="25" height="25" viewBox="0 0 25 25" fill="none" xmlns="http://www.w3.org/2000/svg">
<path d="M12.4964 4.22561C11.3807 4.30434 10.5 5.23443 10.5 6.37021L10.499 8.48729L10.4785 8.49219C5.94626 9.43117 2.59998 13.4473 2.59998 18.1856C2.59998 18.5299 2.61758 18.873 2.65241 19.2133C2.73543 20.0244 3.76807 20.3159 4.26299 19.6679L4.4498 19.4314C5.90912 17.645 7.98682 16.4731 10.2855 16.1661L10.499 16.1403L10.5 18.6346C10.5 19.1152 10.6612 19.5822 10.9578 19.9607C11.6903 20.8952 13.0417 21.059 13.9763 20.3265L21.7999 14.1945C21.9362 14.0877 22.059 13.9648 22.1658 13.8286C22.8983 12.894 22.7345 11.5426 21.7999 10.8101L13.9763 4.67804C13.5978 4.38141 13.1308 4.22021 12.65 4.22021L12.4964 4.22561ZM12.65 6.02021C12.7283 6.02021 12.8043 6.04646 12.8659 6.09475L20.6896 12.2268C20.8417 12.3461 20.8684 12.5661 20.7491 12.7182C20.7317 12.7404 20.7117 12.7604 20.6896 12.7778L12.8659 18.9098C12.7137 19.0291 12.4937 19.0024 12.3745 18.8503C12.3262 18.7887 12.3 18.7126 12.3 18.6344L12.299 15.187C12.2988 14.6843 11.8869 14.2791 11.3842 14.2874L11.151 14.2912L10.8088 14.3078C8.53472 14.4529 6.41208 15.2949 4.69027 16.6736L4.51598 16.8173L4.53977 16.6819C5.18259 13.2665 7.9747 10.5766 11.5081 10.1457C11.9596 10.0906 12.2991 9.70736 12.2992 9.25253L12.3 6.37046C12.3 6.17691 12.4567 6.02021 12.65 6.02021Z" fill="white"/>
</svg>
