<?xml version="1.0" encoding="UTF-8"?>
<!--Generator: Apple Native CoreSVG 232.5-->
<!DOCTYPE svg
PUBLIC "-//W3C//DTD SVG 1.1//EN"
       "http://www.w3.org/Graphics/SVG/1.1/DTD/svg11.dtd">
<svg version="1.1" xmlns="http://www.w3.org/2000/svg" xmlns:xlink="http://www.w3.org/1999/xlink" width="47.5662" height="68.058">
 <g>
  <rect height="68.058" opacity="0" width="47.5662" x="0" y="0"/>
  <path d="M47.1971 27.1523L47.1971 53.5832C47.1971 59.0194 44.3576 61.8721 38.8504 61.8721L8.35036 61.8721C2.86001 61.8721 0 59.0362 0 53.5832L0 27.1523C0 21.6993 2.86001 18.8803 8.35036 18.8803L16.5199 18.8803L16.5199 23.385L8.62064 23.385C5.94888 23.385 4.5084 24.7734 4.5084 27.5215L4.5084 53.2141C4.5084 55.9621 5.94888 57.3505 8.62064 57.3505L38.5764 57.3505C41.1977 57.3505 42.6923 55.9621 42.6923 53.2141L42.6923 27.5215C42.6923 24.7734 41.1977 23.385 38.5764 23.385L30.6772 23.385L30.6772 18.8803L38.8504 18.8803C44.3576 18.8803 47.1971 21.7161 47.1971 27.1523Z" fill="#ffffff" fill-opacity="0.85"/>
  <path d="M23.6004 44.8547C24.1512 44.8547 24.6684 44.6574 25.2156 44.1307L34.2829 35.3148C34.6664 34.9182 34.8936 34.5142 34.8936 33.9445C34.8936 32.8666 34.0282 32.0902 32.963 32.0902C32.4438 32.0902 31.9056 32.308 31.5295 32.7288L27.5219 36.9547L25.5236 39.14L25.7447 35.2677L25.7447 7.0358C25.7447 5.89476 24.7636 4.93254 23.6004 4.93254C22.4335 4.93254 21.4524 5.89476 21.4524 7.0358L21.4524 35.2677L21.6735 39.1568L19.6752 36.9547L15.6507 32.7288C15.2746 32.308 14.716 32.0902 14.1967 32.0902C13.1352 32.0902 12.3035 32.8666 12.3035 33.9445C12.3035 34.5142 12.5176 34.9182 12.9142 35.3148L21.9815 44.1307C22.5286 44.6574 23.0458 44.8547 23.6004 44.8547Z" fill="#ffffff" fill-opacity="0.85"/>
 </g>
</svg>
