<svg width="26" height="26" viewBox="0 0 26 26" fill="none" xmlns="http://www.w3.org/2000/svg">
<path d="M6.65625 6.875C6.65625 6.64294 6.74844 6.42038 6.91253 6.25628C7.07663 6.09219 7.29919 6 7.53125 6H18.4688C18.7008 6 18.9234 6.09219 19.0875 6.25628C19.2516 6.42038 19.3438 6.64294 19.3438 6.875V8.625C19.3438 8.85706 19.2516 9.07962 19.0875 9.24372C18.9234 9.40781 18.7008 9.5 18.4688 9.5C18.2367 9.5 18.0141 9.40781 17.85 9.24372C17.6859 9.07962 17.5938 8.85706 17.5938 8.625V7.75H13.875V18.25H14.75C14.9821 18.25 15.2046 18.3422 15.3687 18.5063C15.5328 18.6704 15.625 18.8929 15.625 19.125C15.625 19.3571 15.5328 19.5796 15.3687 19.7437C15.2046 19.9078 14.9821 20 14.75 20H11.25C11.0179 20 10.7954 19.9078 10.6313 19.7437C10.4672 19.5796 10.375 19.3571 10.375 19.125C10.375 18.8929 10.4672 18.6704 10.6313 18.5063C10.7954 18.3422 11.0179 18.25 11.25 18.25H12.125V7.75H8.40625V8.625C8.40625 8.85706 8.31406 9.07962 8.14997 9.24372C7.98587 9.40781 7.76331 9.5 7.53125 9.5C7.29919 9.5 7.07663 9.40781 6.91253 9.24372C6.74844 9.07962 6.65625 8.85706 6.65625 8.625V6.875Z" fill="white"/>
</svg>
