<?xml version="1.0" encoding="UTF-8"?>
<!--Generator: Apple Native CoreSVG 232.5-->
<!DOCTYPE svg
PUBLIC "-//W3C//DTD SVG 1.1//EN"
       "http://www.w3.org/Graphics/SVG/1.1/DTD/svg11.dtd">
<svg version="1.1" xmlns="http://www.w3.org/2000/svg" xmlns:xlink="http://www.w3.org/1999/xlink" width="52.0422" height="63.9696">
 <g>
  <rect height="63.9696" opacity="0" width="52.0422" x="0" y="0"/>
  <path d="M17.9919 50.5747C18.9919 50.5747 19.6325 49.9267 19.6083 49.0087L18.7823 20.6665C18.7581 19.756 18.0932 19.1453 17.1511 19.1453C16.1622 19.1453 15.5252 19.7728 15.5494 20.7075L16.3755 49.0198C16.3997 49.9472 17.0514 50.5747 17.9919 50.5747ZM25.8468 50.5747C26.8115 50.5747 27.4932 49.9341 27.4932 49.0235L27.4932 20.6965C27.4932 19.7691 26.8115 19.1453 25.8468 19.1453C24.8784 19.1453 24.1967 19.7691 24.1967 20.6965L24.1967 49.0235C24.1967 49.9341 24.8784 50.5747 25.8468 50.5747ZM33.6812 50.5747C34.6217 50.5747 35.2734 49.964 35.2976 49.0366L36.1237 20.7075C36.1479 19.7728 35.5109 19.1621 34.5388 19.1621C33.6004 19.1621 32.9318 19.756 32.9076 20.6833L32.0816 49.0087C32.0574 49.9267 32.6812 50.5747 33.6812 50.5747ZM14.0585 11.8781L18.3229 11.8781L18.3229 6.36766C18.3229 4.86731 19.3585 3.89687 20.9893 3.89687L30.6465 3.89687C32.2772 3.89687 33.3129 4.86731 33.3129 6.36766L33.3129 11.8781L37.5773 11.8781L37.5773 6.16628C37.5773 2.30549 35.1118 0 30.918 0L20.7178 0C16.5408 0 14.0585 2.30549 14.0585 6.16628ZM2.04913 14.3452L49.624 14.3452C50.774 14.3452 51.6731 13.4441 51.6731 12.3108C51.6731 11.1681 50.774 10.2707 49.624 10.2707L2.04913 10.2707C0.93269 10.2707 0 11.1849 0 12.3108C0 13.4609 0.93269 14.3452 2.04913 14.3452ZM13.7644 59.2753L37.946 59.2753C41.7391 59.2753 44.3055 56.8464 44.4974 53.0459L46.3977 13.8587L42.0771 13.8587L40.2757 52.3888C40.1974 54.0315 39.046 55.175 37.4645 55.175L14.1918 55.175C12.6476 55.175 11.4757 54.0147 11.3974 52.3888L9.50821 13.8756L5.29224 13.8756L7.1925 53.0627C7.38445 56.8669 9.91347 59.2753 13.7644 59.2753Z" fill="#ffffff" fill-opacity="0.85"/>
 </g>
</svg>
