<svg width="30" height="30" viewBox="0 0 30 30" fill="none" xmlns="http://www.w3.org/2000/svg">
<path d="M9.25 6C8.38805 6 7.5614 6.34241 6.9519 6.9519C6.34241 7.5614 6 8.38805 6 9.25V20.75C6 21.612 6.34241 22.4386 6.9519 23.0481C7.5614 23.6576 8.38805 24 9.25 24H20.75C21.612 24 22.4386 23.6576 23.0481 23.0481C23.6576 22.4386 24 21.612 24 20.75V9.25C24 8.38805 23.6576 7.5614 23.0481 6.9519C22.4386 6.34241 21.612 6 20.75 6H9.25ZM7.5 9.25C7.5 8.284 8.284 7.5 9.25 7.5H20.75C21.716 7.5 22.5 8.284 22.5 9.25V14.25H7.5V9.25ZM7.5 15.75H22.5V20.75C22.5 21.2141 22.3156 21.6592 21.9874 21.9874C21.6592 22.3156 21.2141 22.5 20.75 22.5H9.25C8.78587 22.5 8.34075 22.3156 8.01256 21.9874C7.68437 21.6592 7.5 21.2141 7.5 20.75V15.75Z" fill="white"/>
</svg>
