<svg width="33" height="33" viewBox="0 0 33 33" fill="none" xmlns="http://www.w3.org/2000/svg">
<circle cx="16.5" cy="12.54" r="5.94" fill="#161616"/>
<path d="M15.981 10.0215L15.9811 10.0213C16.2174 9.5966 16.373 9.32027 16.5 9.13682C16.627 9.32027 16.7826 9.5966 17.0189 10.0213L17.019 10.0215L17.1537 10.2634C17.1634 10.2808 17.1733 10.2989 17.1835 10.3174C17.2972 10.5238 17.446 10.794 17.6927 10.982C17.946 11.1752 18.2515 11.2415 18.4713 11.2893C18.4919 11.2937 18.5118 11.2981 18.5308 11.3023L18.7893 11.3622L18.7893 11.3622L18.793 11.363C19.2945 11.4765 19.6006 11.5475 19.8037 11.6219C19.6805 11.8132 19.4674 12.0649 19.1146 12.4773L19.1145 12.4774L18.9361 12.6861C18.936 12.6861 18.9359 12.6862 18.9359 12.6863C18.9359 12.6863 18.9358 12.6864 18.9358 12.6864C18.9226 12.7018 18.909 12.7176 18.8949 12.7339C18.7424 12.9101 18.5419 13.142 18.4499 13.4381L18.4493 13.4401C18.3598 13.731 18.3896 14.0319 18.4129 14.2665C18.4152 14.2894 18.4174 14.3116 18.4194 14.3332L18.4197 14.3364L18.4471 14.6143C18.4471 14.6145 18.4472 14.6147 18.4472 14.6149C18.4977 15.1366 18.5284 15.4675 18.5246 15.6995C18.3222 15.631 18.0428 15.5043 17.6077 15.3034L17.6072 15.3032L17.3624 15.1904L17.3603 15.1894C17.3418 15.181 17.3225 15.1721 17.3025 15.1628C17.0979 15.0677 16.8141 14.936 16.5 14.936C16.1859 14.936 15.9021 15.0677 15.6975 15.1628C15.6775 15.1721 15.6582 15.181 15.6397 15.1894L15.6376 15.1904L15.3931 15.3031C15.393 15.3031 15.3929 15.3031 15.3928 15.3032C14.9579 15.5033 14.6785 15.63 14.4758 15.6988C14.4719 15.4668 14.5024 15.1359 14.5528 14.615C14.5528 14.6148 14.5529 14.6145 14.5529 14.6143L14.5803 14.3364L14.5806 14.3332C14.5826 14.3116 14.5848 14.2894 14.5871 14.2665C14.6104 14.0319 14.6402 13.731 14.5507 13.4401L13.8339 13.6606L14.5507 13.4401C14.4591 13.1424 14.2581 12.9104 14.1072 12.7362C14.0922 12.7189 14.0778 12.7022 14.0639 12.6861L13.8855 12.4774L13.8854 12.4773C13.5326 12.0649 13.3195 11.8132 13.1963 11.6219C13.3994 11.5475 13.7055 11.4765 14.207 11.363L14.207 11.363L14.2107 11.3622L14.4692 11.3023C14.487 11.2983 14.5054 11.2943 14.5243 11.2902C14.7486 11.2411 15.0509 11.175 15.3039 10.9845L15.3039 10.9845L15.3073 10.982C15.554 10.794 15.7028 10.5238 15.8165 10.3174C15.8267 10.2989 15.8366 10.2808 15.8463 10.2634L15.981 10.0215ZM16.6443 8.9594C16.6443 8.95947 16.6433 8.96032 16.6414 8.96171C16.6434 8.96003 16.6443 8.95933 16.6443 8.9594ZM16.3586 8.96171C16.3567 8.96032 16.3557 8.95948 16.3557 8.9594C16.3557 8.95933 16.3566 8.96003 16.3586 8.96171ZM19.9503 11.6882C19.9502 11.6882 19.9494 11.6877 19.948 11.6866C19.9496 11.6877 19.9504 11.6882 19.9503 11.6882ZM19.8779 11.4857C19.8785 11.4833 19.879 11.482 19.879 11.482C19.8791 11.4819 19.8788 11.4831 19.8779 11.4857ZM18.5056 15.8995C18.5056 15.8994 18.5059 15.8981 18.5068 15.8959C18.5061 15.8984 18.5057 15.8995 18.5056 15.8995ZM18.7189 15.7499C18.7205 15.7499 18.7214 15.75 18.7214 15.75L18.7189 15.7499ZM14.2778 15.7498C14.2778 15.7498 14.2787 15.7497 14.2803 15.7497L14.2778 15.7498ZM14.4939 15.8962C14.4948 15.8985 14.4951 15.8997 14.4951 15.8998C14.495 15.8999 14.4946 15.8987 14.4939 15.8962ZM13.121 11.482C13.121 11.482 13.1215 11.4833 13.1221 11.4857C13.1212 11.4831 13.1209 11.4819 13.121 11.482ZM13.052 11.6866C13.0506 11.6877 13.0498 11.6882 13.0497 11.6882C13.0497 11.6882 13.0504 11.6877 13.052 11.6866ZM16.5 22.75C19.2516 22.75 21.8905 21.6569 23.8362 19.7112C25.7819 17.7655 26.875 15.1266 26.875 12.375C26.875 9.62338 25.7819 6.98446 23.8362 5.03877C21.8905 3.09308 19.2516 2 16.5 2C13.7484 2 11.1095 3.09308 9.16377 5.03877C7.21808 6.98446 6.125 9.62338 6.125 12.375C6.125 15.1266 7.21808 17.7655 9.16377 19.7112C11.1095 21.6569 13.7484 22.75 16.5 22.75Z" fill="#FFA515" stroke="#161616" stroke-width="1.5"/>
<mask id="path-3-outside-1_2204_70713" maskUnits="userSpaceOnUse" x="0.749542" y="14.8681" width="31" height="16" fill="black">
<rect fill="white" x="0.749542" y="14.8681" width="31" height="16"/>
<path d="M6.18062 17.8681L4.11399 20.0062C3.37149 20.7762 3.00024 21.1599 2.87099 21.4857C2.57812 22.2282 2.82974 23.0505 3.46637 23.441C3.74687 23.6115 4.25012 23.6651 5.26074 23.771C5.82999 23.8315 6.11599 23.8617 6.35387 23.9539C6.88874 24.1587 7.30262 24.5891 7.50199 25.1419C7.58999 25.3894 7.61887 25.6836 7.67662 26.2735C7.77974 27.3185 7.83199 27.841 7.99699 28.1311C8.37374 28.7911 9.16987 29.051 9.88624 28.7471C10.1997 28.6151 10.571 28.2301 11.3149 27.4615L14.7276 23.9277C12.9299 23.6514 11.2213 22.9598 9.73761 21.9076C8.25393 20.8555 7.03602 19.4733 6.18062 17.8681ZM18.2737 23.9291L21.6865 27.4629C22.429 28.2329 22.8002 28.6165 23.1137 28.7499C23.8301 29.0524 24.6262 28.7925 25.003 28.1325C25.168 27.8437 25.2189 27.3212 25.322 26.2762C25.3811 25.685 25.41 25.3907 25.498 25.1432C25.696 24.5905 26.1112 24.1601 26.6461 23.9552C26.884 23.8631 27.1686 23.8342 27.7392 23.7737C28.7485 23.6665 29.2531 23.6129 29.5336 23.4424C30.1702 23.0519 30.4219 22.2282 30.129 21.4871C29.9997 21.1612 29.6285 20.7762 28.886 20.0076L26.8194 17.8681C25.964 19.4733 24.7461 20.8569 23.2624 21.909C21.7787 22.9611 20.0701 23.6528 18.2724 23.9291"/>
</mask>
<path d="M6.18062 17.8681L4.11399 20.0062C3.37149 20.7762 3.00024 21.1599 2.87099 21.4857C2.57812 22.2282 2.82974 23.0505 3.46637 23.441C3.74687 23.6115 4.25012 23.6651 5.26074 23.771C5.82999 23.8315 6.11599 23.8617 6.35387 23.9539C6.88874 24.1587 7.30262 24.5891 7.50199 25.1419C7.58999 25.3894 7.61887 25.6836 7.67662 26.2735C7.77974 27.3185 7.83199 27.841 7.99699 28.1311C8.37374 28.7911 9.16987 29.051 9.88624 28.7471C10.1997 28.6151 10.571 28.2301 11.3149 27.4615L14.7276 23.9277C12.9299 23.6514 11.2213 22.9598 9.73761 21.9076C8.25393 20.8555 7.03602 19.4733 6.18062 17.8681ZM18.2737 23.9291L21.6865 27.4629C22.429 28.2329 22.8002 28.6165 23.1137 28.7499C23.8301 29.0524 24.6262 28.7925 25.003 28.1325C25.168 27.8437 25.2189 27.3212 25.322 26.2762C25.3811 25.685 25.41 25.3907 25.498 25.1432C25.696 24.5905 26.1112 24.1601 26.6461 23.9552C26.884 23.8631 27.1686 23.8342 27.7392 23.7737C28.7485 23.6665 29.2531 23.6129 29.5336 23.4424C30.1702 23.0519 30.4219 22.2282 30.129 21.4871C29.9997 21.1612 29.6285 20.7762 28.886 20.0076L26.8194 17.8681C25.964 19.4733 24.7461 20.8569 23.2624 21.909C21.7787 22.9611 20.0701 23.6528 18.2724 23.9291" fill="#FFA515"/>
<path d="M6.18062 17.8681L7.50438 17.1627L6.53483 15.3433L5.10208 16.8256L6.18062 17.8681ZM4.11399 20.0062L3.03545 18.9638L3.03423 18.965L4.11399 20.0062ZM2.87099 21.4857L1.47666 20.9327L1.47562 20.9353L2.87099 21.4857ZM3.46637 23.441L2.68206 24.7196L2.68724 24.7228L3.46637 23.441ZM5.26074 23.771L5.41927 22.2794L5.41703 22.2791L5.26074 23.771ZM6.35387 23.9539L5.81215 25.3526L5.81733 25.3546L6.35387 23.9539ZM7.50199 25.1419L8.91533 24.6393L8.91301 24.6329L7.50199 25.1419ZM7.67662 26.2735L6.18376 26.4196L6.18387 26.4208L7.67662 26.2735ZM7.99699 28.1311L6.69311 28.8726L6.69429 28.8747L7.99699 28.1311ZM9.88624 28.7471L9.30416 27.3646L9.30049 27.3662L9.88624 28.7471ZM11.3149 27.4615L12.3927 28.5046L12.3938 28.5035L11.3149 27.4615ZM14.7276 23.9277L15.8066 24.9698L17.8197 22.8853L14.9555 22.4451L14.7276 23.9277ZM21.6865 27.4629L22.7663 26.4216L22.7655 26.4208L21.6865 27.4629ZM23.1137 28.7499L22.5265 30.1301L22.5302 30.1317L23.1137 28.7499ZM25.003 28.1325L23.7006 27.3883L23.7003 27.3889L25.003 28.1325ZM25.322 26.2762L23.8294 26.127L23.8292 26.1289L25.322 26.2762ZM25.498 25.1432L24.0859 24.6374L24.0847 24.6407L25.498 25.1432ZM26.6461 23.9552L27.1827 25.356L27.1878 25.354L26.6461 23.9552ZM27.7392 23.7737L27.8974 25.2654L27.8978 25.2653L27.7392 23.7737ZM29.5336 23.4424L30.3128 24.7241L30.3179 24.721L29.5336 23.4424ZM30.129 21.4871L31.524 20.9358L31.5233 20.9341L30.129 21.4871ZM28.886 20.0076L27.8071 21.0497L27.8072 21.0498L28.886 20.0076ZM26.8194 17.8681L27.8982 16.826L26.4655 15.3427L25.4956 17.1627L26.8194 17.8681ZM5.10208 16.8256L3.03545 18.9638L5.19253 21.0487L7.25916 18.9106L5.10208 16.8256ZM3.03423 18.965C2.67551 19.337 2.36321 19.6598 2.12885 19.9303C1.90522 20.1884 1.63893 20.5236 1.47666 20.9327L4.26532 22.0388C4.2323 22.122 4.21626 22.1024 4.3962 21.8948C4.5654 21.6995 4.80998 21.4454 5.19376 21.0474L3.03423 18.965ZM1.47562 20.9353C0.941368 22.2898 1.367 23.9129 2.68207 24.7196L4.25066 22.1624C4.26448 22.1708 4.26092 22.1776 4.25489 22.1578C4.24846 22.1367 4.24364 22.0937 4.26636 22.0361L1.47562 20.9353ZM2.68724 24.7228C3.08457 24.9643 3.51955 25.0558 3.84273 25.1097C4.18577 25.167 4.61787 25.2118 5.10446 25.2628L5.41703 22.2791C4.89299 22.2242 4.56816 22.1893 4.33679 22.1507C4.08556 22.1087 4.12866 22.0882 4.24549 22.1592L2.68724 24.7228ZM5.10222 25.2626C5.40095 25.2943 5.57346 25.313 5.70249 25.333C5.82088 25.3513 5.8341 25.3611 5.81215 25.3526L6.89559 22.5551C6.42656 22.3734 5.8969 22.3301 5.41927 22.2794L5.10222 25.2626ZM5.81733 25.3546C5.92881 25.3973 6.03362 25.4918 6.09098 25.6508L8.91301 24.6329C8.57161 23.6864 7.84868 22.9201 6.8904 22.5531L5.81733 25.3546ZM6.08867 25.6444C6.08594 25.6367 6.09743 25.6632 6.1157 25.7912C6.13537 25.9291 6.15362 26.1119 6.18376 26.4196L9.16948 26.1273C9.11994 25.6213 9.08006 25.1027 8.91531 24.6393L6.08867 25.6444ZM6.18387 26.4208C6.23369 26.9256 6.27691 27.3677 6.33165 27.7174C6.383 28.0454 6.46844 28.4776 6.69311 28.8726L9.30088 27.3896C9.36055 27.4945 9.33736 27.5204 9.29555 27.2534C9.25714 27.008 9.22267 26.6663 9.16937 26.1262L6.18387 26.4208ZM6.69429 28.8747C7.46143 30.2186 9.08081 30.7181 10.472 30.128L9.30049 27.3662C9.29242 27.3696 9.28643 27.3713 9.28256 27.3722C9.27865 27.3731 9.27623 27.3733 9.2752 27.3733C9.27332 27.3734 9.27503 27.3731 9.27939 27.3745C9.2838 27.3759 9.28928 27.3787 9.29448 27.3829C9.29696 27.3849 9.29876 27.3868 9.29987 27.3881C9.30101 27.3894 9.30082 27.3894 9.29969 27.3875L6.69429 28.8747ZM10.4683 30.1296C10.8816 29.9555 11.2135 29.6708 11.4596 29.4424C11.7213 29.1995 12.0335 28.8758 12.3927 28.5046L10.237 26.4183C9.85234 26.8158 9.60699 27.0689 9.41872 27.2436C9.21482 27.4329 9.20439 27.4067 9.30416 27.3646L10.4683 30.1296ZM12.3938 28.5035L15.8066 24.9698L13.6486 22.8857L10.2359 26.4195L12.3938 28.5035ZM14.9555 22.4451C13.3882 22.2043 11.8987 21.6013 10.6053 20.6841L8.86993 23.1312C10.5438 24.3182 12.4715 25.0986 14.4998 25.4103L14.9555 22.4451ZM10.6053 20.6841C9.31143 19.7665 8.24986 18.5616 7.50438 17.1627L4.85685 18.5735C5.82218 20.385 7.19643 21.9445 8.86993 23.1312L10.6053 20.6841ZM17.1948 24.9711L20.6075 28.5049L22.7655 26.4208L19.3527 22.8871L17.1948 24.9711ZM20.6067 28.5041C20.9663 28.8769 21.278 29.2006 21.5401 29.4441C21.7873 29.6737 22.117 29.9559 22.5265 30.1301L23.701 27.3696C23.797 27.4104 23.7843 27.4341 23.5819 27.2461C23.3944 27.0719 23.1492 26.8188 22.7663 26.4216L20.6067 28.5041ZM22.5302 30.1317C23.9202 30.7186 25.5386 30.22 26.3057 28.8761L23.7003 27.3889C23.6992 27.3908 23.699 27.3908 23.7001 27.3895C23.7012 27.3882 23.703 27.3864 23.7054 27.3844C23.7105 27.3802 23.7158 27.3776 23.7199 27.3763C23.724 27.3749 23.7254 27.3753 23.7232 27.3752C23.722 27.3752 23.7194 27.375 23.7154 27.3741C23.7114 27.3732 23.7054 27.3714 23.6973 27.368L22.5302 30.1317ZM26.3054 28.8767C26.5322 28.4797 26.6171 28.0448 26.6679 27.7184C26.7221 27.3695 26.765 26.9273 26.8147 26.4235L23.8292 26.1289C23.7758 26.6701 23.7417 27.0117 23.7035 27.2575C23.6618 27.5258 23.6388 27.4965 23.7006 27.3883L26.3054 28.8767ZM26.8146 26.4255C26.8455 26.1163 26.864 25.9329 26.8839 25.794C26.9025 25.6649 26.914 25.6382 26.9113 25.6457L24.0847 24.6407C23.9204 25.1028 23.88 25.6218 23.8294 26.127L26.8146 26.4255ZM26.9101 25.6491C26.9654 25.4947 27.0691 25.3995 27.1827 25.356L26.1096 22.5545C25.1533 22.9207 24.4266 23.6863 24.0859 24.6374L26.9101 25.6491ZM27.1878 25.354C27.1643 25.3631 27.1758 25.3535 27.2943 25.3354C27.4241 25.3156 27.5963 25.2973 27.8974 25.2654L27.5811 22.2821C27.1074 22.3323 26.5747 22.3743 26.1044 22.5565L27.1878 25.354ZM27.8978 25.2653C28.3831 25.2138 28.815 25.1685 29.1575 25.1112C29.4796 25.0572 29.9153 24.9657 30.3127 24.7241L28.7545 22.1606C28.8715 22.0895 28.9145 22.1101 28.662 22.1524C28.4297 22.1913 28.1047 22.2265 27.5807 22.2821L27.8978 25.2653ZM30.3179 24.721C31.6329 23.9144 32.059 22.2895 31.524 20.9358L28.734 22.0384C28.7561 22.0944 28.7517 22.1371 28.745 22.1589C28.7388 22.1794 28.7349 22.1726 28.7493 22.1637L30.3179 24.721ZM31.5233 20.9341C31.3613 20.5256 31.0956 20.1904 30.8715 19.9316C30.6366 19.6602 30.3243 19.3375 29.9648 18.9654L27.8072 21.0498C28.1902 21.4463 28.4348 21.7004 28.6034 21.8952C28.7829 22.1025 28.7674 22.1228 28.7347 22.0401L31.5233 20.9341ZM29.9649 18.9655L27.8982 16.826L25.7405 18.9102L27.8071 21.0497L29.9649 18.9655ZM25.4956 17.1627C24.7499 18.562 23.6881 19.7682 22.3947 20.6854L24.1301 23.1326C25.804 21.9455 27.178 20.3845 28.1431 18.5735L25.4956 17.1627ZM22.3947 20.6854C21.1013 21.6027 19.6118 22.2056 18.0445 22.4465L18.5002 25.4117C20.5285 25.1 22.4561 24.3196 24.1301 23.1326L22.3947 20.6854Z" fill="#161616" mask="url(#path-3-outside-1_2204_70713)"/>
</svg>
