<?xml version="1.0" encoding="UTF-8"?>
<!--Generator: Apple Native CoreSVG 232.5-->
<!DOCTYPE svg
PUBLIC "-//W3C//DTD SVG 1.1//EN"
       "http://www.w3.org/Graphics/SVG/1.1/DTD/svg11.dtd">
<svg version="1.1" xmlns="http://www.w3.org/2000/svg" xmlns:xlink="http://www.w3.org/1999/xlink" width="48.4887" height="48.1924">
 <g>
  <rect height="48.1924" opacity="0" width="48.4887" x="0" y="0"/>
  <path d="M0.836383 47.3518C1.98669 48.4637 3.87432 48.4468 4.97166 47.3687L24.0611 28.2601L43.1612 47.3645C44.2605 48.4637 46.1654 48.4787 47.2731 47.3476C48.4042 46.1973 48.4084 44.3307 47.29 43.2315L28.209 24.1271L47.29 5.03117C48.4084 3.92774 48.4234 2.04198 47.2731 0.91511C46.142-0.196755 44.2605-0.200974 43.1612 0.898235L24.0611 19.9984L4.97166 0.894017C3.87432-0.1841 1.96747-0.220193 0.836383 0.910891C-0.271263 2.06119-0.258607 3.94461 0.823728 5.02273L19.9323 24.1271L0.823728 43.2358C-0.258607 44.3181-0.294701 46.2249 0.836383 47.3518Z" fill="#ffffff" fill-opacity="0.85"/>
 </g>
</svg>
